<svg width="24" height="24" viewBox="0 0 24 24" fill="none" xmlns="http://www.w3.org/2000/svg">
<path d="M20.6646 17.0142C19.233 15.5826 18.4287 13.6409 18.4287 11.6163V9.72264C18.4287 6.71032 16.3568 4.18225 13.5604 3.48498V3.56038C13.5604 2.69865 12.8617 2 11.9999 2C11.1381 2 10.4395 2.69865 10.4395 3.56038V3.48493C7.64311 4.18225 5.57117 6.71027 5.57117 9.72259V11.6163C5.57117 13.6409 4.76688 15.5825 3.33529 17.0141C2.70603 17.6434 2.51779 18.5897 2.85834 19.4119C3.19889 20.2341 4.00117 20.7702 4.89107 20.7702H8.77008C8.77008 22.554 10.2162 24 11.9999 24C13.7837 24 15.2298 22.5539 15.2298 20.7702H19.1088C19.9987 20.7702 20.801 20.2341 21.1415 19.4119C21.4821 18.5898 21.2939 17.6434 20.6646 17.0142ZM11.9999 22.4146C11.0932 22.4146 10.3555 21.6769 10.3555 20.7702H13.6443C13.6443 21.6769 12.9067 22.4146 11.9999 22.4146ZM19.6768 18.8052C19.5813 19.0358 19.3583 19.1847 19.1088 19.1847H4.89107C4.64152 19.1847 4.41856 19.0358 4.32306 18.8052C4.22757 18.5747 4.27989 18.3117 4.45635 18.1352C6.19762 16.394 7.15654 14.0788 7.15654 11.6163V9.72264C7.15654 7.05198 9.32927 4.87926 11.9999 4.87926C14.6706 4.87926 16.8433 7.05198 16.8433 9.72264V11.6163C16.8433 14.0788 17.8023 16.394 19.5435 18.1352C19.72 18.3117 19.7723 18.5747 19.6768 18.8052Z" fill="#2A578D"/>
</svg>
