<svg width="18" height="18" viewBox="0 0 18 18" fill="none" xmlns="http://www.w3.org/2000/svg">
<path d="M8.25 3H3C2.60218 3 2.22064 3.15804 1.93934 3.43934C1.65804 3.72064 1.5 4.10218 1.5 4.5V15C1.5 15.3978 1.65804 15.7794 1.93934 16.0607C2.22064 16.342 2.60218 16.5 3 16.5H13.5C13.8978 16.5 14.2794 16.342 14.5607 16.0607C14.842 15.7794 15 15.3978 15 15V9.75" stroke="#2A578D" stroke-width="1.5" stroke-linecap="round" stroke-linejoin="round"/>
<path d="M12 6L17 1M17 1V3.89474M17 1H14.1053" stroke="#2A578D" stroke-width="1.5" stroke-linecap="round" stroke-linejoin="round"/>
<path d="M8.49988 14.5C8.90017 14.5 9.22452 14.2175 9.22452 13.8691V13.4254C10.1172 13.1751 10.7926 12.5015 10.9626 11.6196C11.1633 10.5795 10.5432 9.64857 9.41969 9.3032C9.05534 9.18704 8.0993 8.95497 7.86162 8.71407C7.70026 8.55585 7.62741 8.33631 7.67128 8.14117C7.71485 7.94771 7.86558 7.79437 8.1192 7.68561C8.65148 7.45741 9.30472 7.86124 9.32394 7.87361C9.63254 8.09365 10.0878 8.05529 10.3419 7.78713C10.5967 7.51848 10.553 7.12079 10.2443 6.89906C10.0666 6.77129 9.69361 6.57144 9.22443 6.45292V6.13085C9.22443 5.78245 8.90008 5.5 8.49978 5.5C8.09949 5.5 7.77514 5.78245 7.77514 6.13085V6.44964C7.6763 6.47748 7.57727 6.51147 7.47862 6.55378C6.81707 6.83758 6.38045 7.31509 6.24904 7.89833C6.11813 8.48023 6.31552 9.09813 6.77745 9.55125C7.22683 9.99235 7.82355 10.1661 8.51456 10.3674C9.1338 10.5442 9.57959 10.9794 9.53322 11.4105C9.4538 11.8224 9.08191 12.2675 8.45331 12.271C7.92249 12.2737 7.72751 12.1748 7.12113 11.8298C6.78615 11.6392 6.33706 11.7211 6.11813 12.0128C5.89919 12.3045 5.99329 12.6954 6.32837 12.886C6.84325 13.1789 7.23929 13.389 7.77514 13.4809V13.869C7.77524 14.2175 8.09968 14.5 8.49988 14.5Z" fill="#2A578D"/>
<path d="M17 4V6M14 1H12" stroke="#2A578D" stroke-width="1.5" stroke-linecap="round"/>
</svg>
