<svg width="16" height="16" viewBox="0 0 16 16" fill="none" xmlns="http://www.w3.org/2000/svg">
<g clip-path="url(#clip0_81_2552)">
<path d="M13.9268 3.86948C14.0767 3.86948 14.2212 3.81001 14.3278 3.70339L15.8987 2.13252C16.1086 1.92261 15.9719 1.56236 15.6762 1.5438L14.8402 1.49133L15.3857 0.945862C15.4772 0.854331 15.4772 0.705925 15.3857 0.614425C15.2941 0.522894 15.1458 0.522894 15.0542 0.614425L14.5088 1.15989L14.4563 0.323957C14.4377 0.0276759 14.0771 -0.108074 13.8676 0.101426L12.2967 1.6723C12.1816 1.78733 12.1215 1.94642 12.1317 2.10877L12.1857 2.96901C10.8747 1.85114 9.18495 1.21008 7.39502 1.21008C3.30784 1.21008 0 4.51751 0 8.60507C0 10.4498 0.683124 12.2166 1.92359 13.5801C2.01075 13.6758 2.15896 13.6828 2.25468 13.5957C2.35043 13.5086 2.35743 13.3603 2.27034 13.2646C1.10856 11.9877 0.468749 10.3329 0.468749 8.60507C0.468749 4.78592 3.57587 1.6788 7.39502 1.6788C9.18476 1.6788 10.8689 2.36473 12.1286 3.54001L11.0592 4.60942C10.092 3.72164 8.80429 3.17836 7.39502 3.17836C4.40274 3.17836 1.96834 5.61276 1.96834 8.60503C1.96834 9.46622 2.17609 10.324 2.56921 11.0857C3.48012 12.8507 5.31471 14.0317 7.39505 14.0317C9.95845 14.0317 12.1879 12.2211 12.709 9.70841C12.7353 9.58166 12.6538 9.45759 12.5271 9.43131C12.4003 9.40503 12.2763 9.48647 12.25 9.61322C11.7754 11.9018 9.73361 13.563 7.39508 13.563C5.5323 13.563 3.84274 12.5314 2.98584 10.8708C2.62178 10.1653 2.43712 9.40297 2.43712 8.60503C2.43712 5.87123 4.66124 3.64711 7.39505 3.64711C8.67536 3.64711 9.84592 4.13779 10.7278 4.94076L9.66792 6.00066C9.05967 5.46917 8.26436 5.14667 7.39505 5.14667C5.48811 5.14667 3.93671 6.69807 3.93671 8.605C3.93671 10.5119 5.48811 12.0633 7.39505 12.0633C9.30198 12.0633 10.8534 10.5119 10.8534 8.605C10.8534 7.73569 10.5309 6.94038 9.99939 6.33213L11.0594 5.27217C11.8561 6.14698 12.3456 7.30622 12.3529 8.57616C12.3536 8.70513 12.4584 8.80919 12.5872 8.80919H12.5886C12.718 8.80844 12.8223 8.70291 12.8216 8.57347C12.8136 7.17551 12.2717 5.9001 11.3908 4.94067L12.4603 3.87117C13.6305 5.12238 14.3213 6.79651 14.3213 8.60497C14.3213 12.4242 11.2142 15.5313 7.39502 15.5313C5.81286 15.5313 4.2658 14.984 3.03884 13.9902C2.93818 13.9088 2.79071 13.9243 2.70918 14.0248C2.62771 14.1254 2.64321 14.273 2.74378 14.3545C4.05396 15.4157 5.7058 16.0001 7.39502 16.0001C11.4822 16.0001 14.79 12.6927 14.79 8.60507C14.79 7.00466 14.2871 5.48151 13.3357 4.20032C13.2372 4.06767 13.1346 3.93907 13.0285 3.81417C13.9473 3.87189 13.8978 3.86948 13.9268 3.86948ZM10.3846 8.60507C10.3846 10.2535 9.04351 11.5947 7.39502 11.5947C5.74655 11.5947 4.40543 10.2535 4.40543 8.60507C4.40543 6.9566 5.74655 5.61548 7.39502 5.61548C8.13508 5.61548 8.81308 5.88588 9.3357 6.33291L8.26914 7.39947C8.02339 7.22082 7.72139 7.11504 7.39502 7.11504C6.57342 7.11504 5.90499 7.78347 5.90499 8.60507C5.90499 9.42666 6.57342 10.0951 7.39502 10.0951C8.21664 10.0951 8.88508 9.42666 8.88508 8.60507C8.88508 8.27866 8.77929 7.97666 8.60064 7.73094L9.6672 6.66438C10.1142 7.18701 10.3846 7.865 10.3846 8.60507ZM7.22927 8.77081C7.32083 8.86234 7.4692 8.86234 7.56073 8.77081L8.2633 8.06825C8.36017 8.22435 8.4163 8.40825 8.4163 8.6051C8.4163 9.16825 7.95814 9.62638 7.39499 9.62638C6.83183 9.62638 6.37371 9.16822 6.37371 8.6051C6.37371 8.04197 6.83183 7.58382 7.39499 7.58382C7.59183 7.58382 7.77573 7.63994 7.93183 7.73679L7.22924 8.43938C7.13774 8.53088 7.13774 8.67928 7.22927 8.77081ZM12.5996 2.07939C12.5978 2.05123 12.6082 2.02364 12.6282 2.00373L14.0056 0.626331L14.0668 1.60183L12.658 3.01064L12.5996 2.07939ZM12.9895 3.34208L14.3983 1.93327L15.3738 1.99448L13.9963 3.37192C13.9764 3.39186 13.9486 3.40245 13.9207 3.40051L12.9895 3.34208Z" fill="#999999"/>
</g>
<defs>
<clipPath id="clip0_81_2552">
<rect width="16" height="16" fill="white"/>
</clipPath>
</defs>
</svg>
