<svg width="16" height="16" viewBox="0 0 16 16" fill="none" xmlns="http://www.w3.org/2000/svg">
<g clip-path="url(#clip0_81_2514)">
<path d="M6.67027 1.06983C3.57864 1.06983 1.07239 3.57608 1.07239 6.6677C1.07239 9.75933 3.57864 12.2656 6.67027 12.2656C9.76189 12.2656 12.2681 9.75933 12.2681 6.6677C12.2648 3.57748 9.76049 1.07319 6.67027 1.06983ZM6.67027 1.60296C8.31684 1.60426 9.85982 2.40675 10.8063 3.75414L10.1399 4.42056C9.97771 4.32243 9.79205 4.26991 9.60249 4.26861C9.01361 4.26861 8.53622 4.746 8.53622 5.33488C8.53716 5.52464 8.58937 5.7106 8.68737 5.87307L6.9419 7.61854C6.61139 7.41702 6.19601 7.41702 5.8655 7.61854L4.65316 6.4062C4.75116 6.24373 4.80337 6.05777 4.80431 5.86801C4.80504 5.2803 4.32922 4.80328 3.74151 4.80254C3.25546 4.80194 2.83079 5.13072 2.70963 5.60144H1.72068C2.22538 3.27076 4.28557 1.60646 6.67027 1.60296ZM10.1356 5.33488C10.1356 5.62933 9.89694 5.86801 9.60249 5.86801C9.30803 5.86801 9.06936 5.62933 9.06936 5.33488C9.06936 5.04042 9.30803 4.80174 9.60249 4.80174C9.89694 4.80174 10.1356 5.04042 10.1356 5.33488ZM6.93683 8.53366C6.93683 8.82812 6.69815 9.06679 6.4037 9.06679C6.10924 9.06679 5.87057 8.82812 5.87057 8.53366C5.87057 8.23921 6.10924 8.00053 6.4037 8.00053C6.69815 8.00053 6.93683 8.23921 6.93683 8.53366ZM4.27118 5.86801C4.27118 6.16246 4.0325 6.40114 3.73804 6.40114C3.44359 6.40114 3.20491 6.16246 3.20491 5.86801C3.20491 5.57355 3.44359 5.33488 3.73804 5.33488C4.0325 5.33488 4.27118 5.57355 4.27118 5.86801ZM9.13113 11.0962C8.37835 11.5142 7.53134 11.7332 6.67027 11.7324C3.87499 11.7343 1.60742 9.46987 1.60552 6.6746C1.60539 6.4942 1.61492 6.3139 1.63404 6.13454H2.70963C2.83082 6.60386 3.25333 6.9324 3.73804 6.93424C3.9278 6.9333 4.11377 6.88109 4.27624 6.78309L5.48858 7.99543C5.39058 8.15791 5.33837 8.34387 5.33744 8.53363C5.33744 9.12251 5.81482 9.59989 6.4037 9.59989C6.99258 9.59989 7.46996 9.12251 7.46996 8.53363C7.46903 8.34387 7.41682 8.15791 7.31882 7.99543L9.06429 6.24996C9.22676 6.34796 9.41273 6.40017 9.60249 6.4011C10.1914 6.4011 10.6687 5.92372 10.6687 5.33484C10.6678 5.14508 10.6156 4.95912 10.5176 4.79665L11.0987 4.2158C12.4554 6.65914 11.5744 9.73961 9.13113 11.0962Z" fill="#999999"/>
<path d="M13.3344 2.6695C13.8191 2.66767 14.2416 2.33916 14.3628 1.86981H16V1.33667H14.3628C14.2416 0.867319 13.8191 0.538811 13.3344 0.536978C12.7455 0.536978 12.2681 1.01436 12.2681 1.60324C12.2691 1.793 12.3213 1.97896 12.4193 2.14144L11.9509 2.60979C9.70993 -0.309801 5.52645 -0.859926 2.60686 1.38106C-0.312731 3.62204 -0.862855 7.80556 1.37813 10.7251C3.49346 13.481 7.37102 14.1495 10.287 12.2611L11.0915 13.0656L11.4684 13.4425L13.6143 15.5883C14.16 16.1341 15.0448 16.1341 15.5906 15.5883C16.1364 15.0426 16.1364 14.1578 15.5906 13.612L13.4448 11.4662L13.0678 11.0892L12.2633 10.2847C13.6914 8.08505 13.6914 5.25096 12.2633 3.05122L12.7965 2.51809C12.9588 2.61612 13.1447 2.66844 13.3344 2.6695ZM13.3344 1.07011C13.6288 1.07011 13.8675 1.30879 13.8675 1.60324C13.8675 1.8977 13.6288 2.13637 13.3344 2.13637C13.0399 2.13637 12.8013 1.8977 12.8013 1.60324C12.8013 1.30879 13.04 1.07011 13.3344 1.07011ZM15.2137 13.9889C15.5551 14.3227 15.5613 14.87 15.2276 15.2114C14.8938 15.5528 14.3465 15.559 14.0051 15.2253C14.0004 15.2207 13.9958 15.2161 13.9912 15.2114L11.8454 13.0656L13.0678 11.8431L15.2137 13.9889ZM12.6909 11.4662L11.4684 12.6886L10.7306 11.9508C10.7682 11.922 10.8034 11.8903 10.8404 11.8607C10.8775 11.8311 10.9204 11.7956 10.9601 11.7623C11.0185 11.7133 11.076 11.6637 11.1326 11.6128C11.1616 11.5861 11.1893 11.5595 11.2179 11.5328C11.3272 11.4304 11.433 11.3246 11.5353 11.2153C11.562 11.1868 11.5887 11.1591 11.6153 11.13C11.6662 11.0735 11.7158 11.0159 11.7649 10.9576C11.7983 10.9181 11.8311 10.8782 11.8632 10.8379C11.8925 10.8011 11.9243 10.7659 11.9531 10.7283L12.6909 11.4662ZM11.6572 10.228C11.5732 10.3453 11.4866 10.4601 11.3951 10.5708C11.3685 10.603 11.34 10.6342 11.3125 10.6659C11.2309 10.7608 11.1467 10.8529 11.0598 10.9421C11.0219 10.9812 10.9835 11.0197 10.9444 11.0575C10.8555 11.1444 10.7635 11.2287 10.6682 11.3102C10.6365 11.3369 10.6053 11.3659 10.573 11.3929C10.4624 11.4843 10.3475 11.5709 10.2302 11.6549C7.47075 13.6263 3.63557 12.9875 1.66415 10.228C-0.307266 7.46848 0.331592 3.6333 3.09108 1.66188C5.85057 -0.309534 9.68574 0.32929 11.6572 3.08881C13.1826 5.22407 13.1826 8.09271 11.6572 10.228Z" fill="#999999"/>
</g>
<defs>
<clipPath id="clip0_81_2514">
<rect width="16" height="16" fill="white"/>
</clipPath>
</defs>
</svg>

