<svg width="16" height="16" viewBox="0 0 16 16" fill="none" xmlns="http://www.w3.org/2000/svg">
<g clip-path="url(#clip0_81_2675)">
<path d="M12.6485 5.72131C12.6418 5.68115 12.6377 5.64148 12.6363 5.60339C12.6288 5.39697 12.4598 5.23535 12.2516 5.23535H3.72704C3.51878 5.23535 3.34984 5.39697 3.34227 5.60339C3.34093 5.64136 3.33678 5.68103 3.33006 5.72119C3.27708 6.03955 3.01256 6.28271 2.68675 6.31262C2.66551 6.31458 2.64476 6.31592 2.62511 6.31641C2.41563 6.32251 2.25145 6.49158 2.25145 6.70129V7.82104C2.25145 7.95117 2.35692 8.05652 2.48692 8.05652C2.61705 8.05652 2.72252 7.95105 2.72252 7.82104V6.78235C2.72496 6.7821 2.7274 6.78186 2.72984 6.78174C3.26866 6.73218 3.70653 6.32788 3.79466 5.79871C3.79979 5.76782 3.80394 5.73694 3.80699 5.7063H12.1715C12.1745 5.73694 12.1787 5.76782 12.1839 5.79883C12.2721 6.32812 12.7102 6.7323 13.2494 6.78174C13.2516 6.78186 13.2539 6.7821 13.2561 6.78235V9.20496C13.2538 9.2052 13.2516 9.20544 13.2493 9.20557C12.7102 9.255 12.2721 9.65918 12.1839 10.1886C12.1788 10.2195 12.1747 10.2504 12.1715 10.281H3.80711C3.80406 10.2505 3.79991 10.2196 3.79478 10.1887C3.70665 9.65942 3.26866 9.25513 2.72984 9.20569C2.7274 9.20544 2.72496 9.2052 2.72252 9.20496V8.9137C2.72252 8.78369 2.61705 8.67822 2.48705 8.67822C2.35692 8.67822 2.25157 8.78369 2.25157 8.9137V9.28601C2.25157 9.49573 2.41563 9.66479 2.62486 9.6709C2.64513 9.67151 2.666 9.67273 2.68675 9.67468C3.01256 9.70471 3.27708 9.94788 3.33018 10.2661C3.3369 10.3063 3.34093 10.3459 3.34227 10.3839C3.34984 10.5903 3.51878 10.752 3.72716 10.752H12.2516C12.4598 10.752 12.6289 10.5903 12.6363 10.3839C12.6378 10.3458 12.6418 10.3062 12.6485 10.266C12.7016 9.94763 12.9663 9.70447 13.2922 9.67468C13.3135 9.67273 13.3341 9.67151 13.3536 9.6709C13.5631 9.66479 13.7272 9.49573 13.7272 9.28601V6.70129C13.7272 6.49158 13.5631 6.32263 13.3536 6.31641C13.3341 6.31592 13.3135 6.31458 13.2922 6.31262C12.9662 6.28284 12.7015 6.03967 12.6485 5.72131Z" fill="white"/>
<path d="M4.20375 8.22913C4.33376 8.22913 4.43922 8.12366 4.43922 7.99365C4.43922 7.86353 4.33376 7.75818 4.20375 7.75818H3.76601C3.63588 7.75818 3.53053 7.86365 3.53053 7.99365C3.53053 8.12366 3.63588 8.22913 3.76601 8.22913H4.20375Z" fill="white"/>
<path d="M12.2096 8.22913C12.3396 8.22913 12.4451 8.12366 12.4451 7.99365C12.4451 7.86353 12.3396 7.75818 12.2096 7.75818H11.7718C11.6417 7.75818 11.5362 7.86365 11.5362 7.99365C11.5362 8.12366 11.6417 8.22913 11.7718 8.22913H12.2096Z" fill="white"/>
<path d="M9.85168 7.99365C9.85168 6.97266 9.021 6.14197 8 6.14197C6.979 6.14197 6.14832 6.97266 6.14832 7.99365C6.14832 9.01465 6.979 9.84534 8 9.84534C9.021 9.84534 9.85168 9.01465 9.85168 7.99365ZM6.61926 7.99365C6.61926 7.23242 7.23865 6.61304 8 6.61304C8.76135 6.61304 9.38074 7.23242 9.38074 7.99365C9.38074 8.75501 8.76135 9.37439 8 9.37439C7.23865 9.37439 6.61926 8.75501 6.61926 7.99365Z" fill="white"/>
<path d="M15.9971 4.07558C15.9579 3.78213 15.8849 3.50552 15.7803 3.2532C15.4396 2.43166 14.6337 1.9009 13.7272 1.9009H13.1309V1.11941C13.1309 1.00417 13.0673 0.899802 12.9649 0.846946C12.8624 0.794089 12.7404 0.802756 12.6465 0.869651L11.6854 1.55349C11.5795 1.62881 11.5547 1.7759 11.63 1.88186C11.7055 1.98781 11.8524 2.0126 11.9585 1.93728L12.6598 1.43813V2.06533C12.6598 2.2344 12.7974 2.37197 12.9664 2.37197H13.7272C14.4426 2.37197 15.0778 2.78872 15.3452 3.43362C15.3729 3.50027 15.398 3.56911 15.4204 3.64004C14.9547 3.30312 14.3588 3.30141 13.8184 3.29995C13.7394 3.2997 13.6609 3.29946 13.5836 3.29824C13.4666 3.29641 13.3516 3.30324 13.2404 3.31008C13.1451 3.31594 13.0553 3.32143 12.9666 3.32143C12.7974 3.32143 12.6598 3.45901 12.6598 3.62807V4.38711L10.5877 2.91262L11.0781 2.56362C11.1841 2.4883 11.2089 2.34121 11.1336 2.23525C11.0581 2.12929 10.9111 2.10451 10.8051 2.17995L10.1264 2.66286C10.0457 2.72024 9.99744 2.81362 9.99744 2.91262C9.99744 3.01174 10.0457 3.10512 10.1264 3.1625L11.3814 4.05544H1.56629C1.23682 4.05544 0.968879 4.32351 0.968879 4.65285V11.3345C0.968879 11.664 1.23682 11.9319 1.56629 11.9319H2.86915V12.1995C2.82252 12.2017 2.77637 12.2045 2.73096 12.2073C2.62415 12.2138 2.52332 12.2199 2.42432 12.2183C2.34486 12.2169 2.26417 12.2167 2.18299 12.2166C1.5442 12.2147 0.940803 12.213 0.597541 11.6911C0.513313 11.563 0.354377 11.5109 0.211067 11.5645C0.0683666 11.6178 -0.0172047 11.7606 0.00293691 11.9119C0.0421215 12.2053 0.11512 12.482 0.219734 12.7343C0.560432 13.5557 1.36634 14.0864 2.27283 14.0864H2.86915V14.8679C2.86915 14.9832 2.93275 15.0877 3.03516 15.1404C3.07972 15.1634 3.12794 15.1747 3.17591 15.1747C3.23829 15.1747 3.30042 15.1555 3.35352 15.1178L5.87366 13.3246C5.95435 13.2671 6.00245 13.1737 6.00245 13.0747C6.00245 12.9757 5.95435 12.8823 5.87366 12.825L4.61854 11.9319H14.4337C14.7631 11.9319 15.0311 11.6638 15.0311 11.3345V4.65285C15.0311 4.32339 14.7631 4.05544 14.4337 4.05544H13.1309V3.78799C13.1776 3.78579 13.2238 3.78298 13.2692 3.78017C13.376 3.7737 13.4767 3.76748 13.5758 3.76919C13.6553 3.77041 13.7358 3.77065 13.8171 3.7709C14.4558 3.77273 15.0592 3.77444 15.4026 4.29641C15.4867 4.42446 15.6456 4.47646 15.7889 4.423C15.9316 4.36965 16.0173 4.22683 15.9971 4.07558ZM5.41236 13.0747L3.34022 14.5492V13.9221C3.34022 13.7531 3.20264 13.6155 3.03358 13.6155H2.27283C1.55738 13.6155 0.922248 13.1988 0.654792 12.5539C0.627082 12.4871 0.602058 12.4182 0.579597 12.3474C1.0453 12.6843 1.64124 12.6859 2.18165 12.6874C2.26063 12.6876 2.33912 12.6879 2.41639 12.6892C2.5337 12.6911 2.64857 12.6841 2.75965 12.6773C2.85487 12.6715 2.94483 12.666 3.03358 12.666C3.20264 12.666 3.34022 12.5285 3.34022 12.3594V11.6002L5.41236 13.0747ZM14.4337 4.52639C14.5033 4.52639 14.5601 4.58315 14.5601 4.65285V11.3345C14.5601 11.4042 14.5034 11.4608 14.4337 11.4608H3.95655L3.35352 11.0318C3.25953 10.9649 3.13758 10.9562 3.03516 11.0091C2.93275 11.0619 2.86915 11.1663 2.86915 11.2815V11.4608H1.56629C1.49659 11.4608 1.43983 11.4042 1.43983 11.3345V4.65285C1.43983 4.58315 1.49659 4.52639 1.56629 4.52639H12.0433L12.6465 4.95571C12.6996 4.99343 12.7617 5.0126 12.8241 5.0126C12.8721 5.0126 12.9203 5.00124 12.9649 4.97829C13.0673 4.92544 13.1309 4.82107 13.1309 4.70583V4.52651H14.4337V4.52639Z" fill="white"/>
</g>
<defs>
<clipPath id="clip0_81_2675">
<rect width="16" height="16" fill="white"/>
</clipPath>
</defs>
</svg>
