<svg width="17" height="19" viewBox="0 0 17 19" fill="none" xmlns="http://www.w3.org/2000/svg">
<path d="M12 14.5H1V1H12V14.5Z" stroke="#999999" stroke-width="0.5" stroke-linejoin="round"/>
<path d="M12.22 16.4823L12.22 16.4823L12.222 16.4843L12.2445 16.5068L12.2446 16.5069C12.2911 16.5533 12.3279 16.6085 12.3531 16.6692C12.3783 16.7299 12.3912 16.7949 12.3912 16.8606C12.3912 16.9263 12.3783 16.9914 12.3531 17.0521C12.3279 17.1128 12.2911 17.1679 12.2446 17.2144L12.2444 17.2146C12.1979 17.2611 12.1428 17.2979 12.0821 17.3231C12.0214 17.3483 11.9563 17.3612 11.8906 17.3612C11.8249 17.3612 11.7599 17.3483 11.6992 17.3231C11.6385 17.2979 11.5833 17.2611 11.5369 17.2146L11.5368 17.2145L11.5143 17.192L11.5143 17.192L11.5123 17.19C11.3882 17.0687 11.2306 16.9872 11.0598 16.9563C10.8895 16.9254 10.7138 16.9461 10.5553 17.0157C10.4001 17.0825 10.2677 17.1932 10.1744 17.334C10.0809 17.4753 10.0307 17.6408 10.03 17.8103V17.8112V17.875C10.03 18.0076 9.97732 18.1348 9.88355 18.2286C9.78978 18.3223 9.66261 18.375 9.53 18.375C9.39739 18.375 9.27022 18.3223 9.17645 18.2286C9.08268 18.1348 9.03 18.0076 9.03 17.875V17.8412H9.03007L9.02993 17.8354C9.02585 17.6611 8.96944 17.4921 8.86803 17.3503C8.76816 17.2107 8.62918 17.1038 8.4687 17.0431C8.31179 16.9756 8.13838 16.9558 7.97018 16.9863C7.79938 17.0172 7.64177 17.0987 7.51768 17.22L7.51767 17.22L7.51572 17.222L7.49322 17.2445L7.49312 17.2446C7.44669 17.2911 7.39154 17.3279 7.33084 17.3531C7.27015 17.3783 7.20508 17.3912 7.13937 17.3912C7.07367 17.3912 7.0086 17.3783 6.9479 17.3531C6.88721 17.3279 6.83206 17.2911 6.78562 17.2446L6.78543 17.2444C6.73894 17.1979 6.70206 17.1428 6.6769 17.0821C6.65174 17.0214 6.63878 16.9563 6.63878 16.8906C6.63878 16.8249 6.65174 16.7599 6.6769 16.6992C6.70206 16.6385 6.73894 16.5833 6.78543 16.5369L6.78552 16.5368L6.80802 16.5143L6.80804 16.5143L6.80997 16.5123C6.93135 16.3882 7.01277 16.2306 7.04374 16.0598C7.07463 15.8895 7.05391 15.7138 6.98426 15.5553C6.91746 15.4001 6.80685 15.2677 6.66596 15.1744C6.5247 15.0809 6.35917 15.0307 6.18975 15.03H6.18875H6.125C5.99239 15.03 5.86522 14.9773 5.77145 14.8836C5.67768 14.7898 5.625 14.6626 5.625 14.53C5.625 14.3974 5.67768 14.2702 5.77145 14.1764C5.86522 14.0827 5.99239 14.03 6.125 14.03H6.15875V14.0301L6.1646 14.0299C6.33887 14.0259 6.50789 13.9694 6.64967 13.868C6.78932 13.7682 6.89619 13.6292 6.95687 13.4687C7.02443 13.3118 7.04424 13.1384 7.01374 12.9702C6.98277 12.7994 6.90135 12.6418 6.77997 12.5177L6.77998 12.5177L6.77803 12.5157L6.75553 12.4932L6.75543 12.4931C6.70894 12.4467 6.67206 12.3915 6.6469 12.3308C6.62174 12.2701 6.60878 12.2051 6.60878 12.1394C6.60878 12.0737 6.62174 12.0086 6.6469 11.9479C6.67206 11.8872 6.70894 11.8321 6.75543 11.7856L6.75562 11.7854C6.80206 11.7389 6.85721 11.7021 6.9179 11.6769C6.9786 11.6517 7.04367 11.6388 7.10938 11.6388C7.17508 11.6388 7.24015 11.6517 7.30085 11.6769C7.36154 11.7021 7.41669 11.7389 7.46312 11.7854L7.46322 11.7855L7.48572 11.808L7.48571 11.808L7.48768 11.81C7.61177 11.9313 7.76938 12.0128 7.94018 12.0437C8.09303 12.0715 8.25019 12.0576 8.39535 12.0042C8.42223 12.002 8.44862 11.9954 8.47348 11.9848C8.62921 11.918 8.76202 11.8072 8.85557 11.666C8.94912 11.5247 8.99932 11.3592 9 11.1897H9V11.1887V11.125C9 10.9924 9.05268 10.8652 9.14645 10.7714C9.24021 10.6777 9.36739 10.625 9.5 10.625C9.63261 10.625 9.75978 10.6777 9.85355 10.7714C9.94732 10.8652 10 10.9924 10 11.125L10 11.1587L10 11.1597C10.0007 11.3292 10.0509 11.4947 10.1444 11.636C10.2377 11.7768 10.3701 11.8875 10.5253 11.9543C10.6838 12.0239 10.8595 12.0446 11.0298 12.0137C11.2006 11.9828 11.3582 11.9013 11.4823 11.78L11.4823 11.78L11.4843 11.778L11.5068 11.7555L11.5069 11.7554C11.5533 11.7089 11.6085 11.6721 11.6692 11.6469C11.7299 11.6217 11.7949 11.6088 11.8606 11.6088C11.9263 11.6088 11.9914 11.6217 12.0521 11.6469C12.1128 11.6721 12.1679 11.7089 12.2144 11.7554L12.2146 11.7556C12.2611 11.8021 12.2979 11.8572 12.3231 11.9179C12.3483 11.9786 12.3612 12.0437 12.3612 12.1094C12.3612 12.1751 12.3483 12.2401 12.3231 12.3008C12.2979 12.3615 12.2611 12.4167 12.2146 12.4631L12.2145 12.4632L12.192 12.4857L12.192 12.4857L12.19 12.4877C12.0687 12.6118 11.9872 12.7694 11.9563 12.9402C11.9285 13.093 11.9424 13.2502 11.9958 13.3954C11.998 13.4222 12.0046 13.4486 12.0152 13.4735C12.082 13.6292 12.1928 13.762 12.334 13.8556C12.4753 13.9491 12.6408 13.9993 12.8103 14H12.8112H12.875C13.0076 14 13.1348 14.0527 13.2286 14.1464C13.3223 14.2402 13.375 14.3674 13.375 14.5C13.375 14.6326 13.3223 14.7598 13.2286 14.8536C13.1348 14.9473 13.0076 15 12.875 15L12.8412 15L12.8403 15C12.6708 15.0007 12.5053 15.0509 12.364 15.1444C12.2231 15.2377 12.1125 15.3701 12.0457 15.5253C11.9761 15.6838 11.9554 15.8595 11.9863 16.0298C12.0172 16.2006 12.0987 16.3582 12.22 16.4823Z" fill="white" stroke="#999999" stroke-width="0.5" stroke-linecap="round" stroke-linejoin="round"/>
<path d="M9.5 15.625C10.1213 15.625 10.625 15.1213 10.625 14.5C10.625 13.8787 10.1213 13.375 9.5 13.375C8.87868 13.375 8.375 13.8787 8.375 14.5C8.375 15.1213 8.87868 15.625 9.5 15.625Z" stroke="#999999" stroke-width="0.5" stroke-linecap="round" stroke-linejoin="round"/>
<path d="M15.22 12.4823L15.22 12.4823L15.222 12.4843L15.2445 12.5068L15.2446 12.5069C15.2911 12.5533 15.3279 12.6085 15.3531 12.6692C15.3783 12.7299 15.3912 12.7949 15.3912 12.8606C15.3912 12.9263 15.3783 12.9914 15.3531 13.0521C15.3279 13.1128 15.2911 13.1679 15.2446 13.2144L15.2444 13.2146C15.1979 13.2611 15.1428 13.2979 15.0821 13.3231C15.0214 13.3483 14.9563 13.3612 14.8906 13.3612C14.8249 13.3612 14.7599 13.3483 14.6992 13.3231C14.6385 13.2979 14.5833 13.2611 14.5369 13.2146L14.5368 13.2145L14.5143 13.192L14.5143 13.192L14.5123 13.19C14.3882 13.0687 14.2306 12.9872 14.0598 12.9563C13.8895 12.9254 13.7138 12.9461 13.5553 13.0157C13.4001 13.0825 13.2677 13.1932 13.1744 13.334C13.0809 13.4753 13.0307 13.6408 13.03 13.8103V13.8112V13.875C13.03 14.0076 12.9773 14.1348 12.8836 14.2286C12.7898 14.3223 12.6626 14.375 12.53 14.375C12.3974 14.375 12.2702 14.3223 12.1764 14.2286C12.0827 14.1348 12.03 14.0076 12.03 13.875V13.8412H12.0301L12.0299 13.8354C12.0259 13.6611 11.9694 13.4921 11.868 13.3503C11.7682 13.2107 11.6292 13.1038 11.4687 13.0431C11.3118 12.9756 11.1384 12.9558 10.9702 12.9863C10.7994 13.0172 10.6418 13.0987 10.5177 13.22L10.5177 13.22L10.5157 13.222L10.4932 13.2445L10.4931 13.2446C10.4467 13.2911 10.3915 13.3279 10.3308 13.3531C10.2701 13.3783 10.2051 13.3912 10.1394 13.3912C10.0737 13.3912 10.0086 13.3783 9.9479 13.3531C9.88721 13.3279 9.83206 13.2911 9.78562 13.2446L9.78543 13.2444C9.73894 13.1979 9.70206 13.1428 9.6769 13.0821C9.65174 13.0214 9.63878 12.9563 9.63878 12.8906C9.63878 12.8249 9.65174 12.7599 9.6769 12.6992C9.70206 12.6385 9.73894 12.5833 9.78543 12.5369L9.78552 12.5368L9.80802 12.5143L9.80804 12.5143L9.80997 12.5123C9.93135 12.3882 10.0128 12.2306 10.0437 12.0598C10.0746 11.8895 10.0539 11.7138 9.98426 11.5553C9.91746 11.4001 9.80685 11.2677 9.66596 11.1744C9.5247 11.0809 9.35917 11.0307 9.18975 11.03H9.18875H9.125C8.99239 11.03 8.86522 10.9773 8.77145 10.8836C8.67768 10.7898 8.625 10.6626 8.625 10.53C8.625 10.3974 8.67768 10.2702 8.77145 10.1764C8.86522 10.0827 8.99239 10.03 9.125 10.03H9.15875V10.0301L9.1646 10.0299C9.33887 10.0259 9.50789 9.96944 9.64967 9.86803C9.78932 9.76816 9.89619 9.62918 9.95687 9.4687C10.0244 9.31179 10.0442 9.13838 10.0137 8.97018C9.98277 8.79938 9.90135 8.64177 9.77997 8.51768L9.77998 8.51767L9.77803 8.51572L9.75553 8.49322L9.75543 8.49312C9.70894 8.44669 9.67206 8.39154 9.6469 8.33084C9.62174 8.27015 9.60878 8.20508 9.60878 8.13937C9.60878 8.07367 9.62174 8.0086 9.6469 7.9479C9.67206 7.88721 9.70894 7.83206 9.75543 7.78562L9.75562 7.78543C9.80206 7.73894 9.85721 7.70206 9.9179 7.6769C9.9786 7.65174 10.0437 7.63878 10.1094 7.63878C10.1751 7.63878 10.2401 7.65174 10.3008 7.6769C10.3615 7.70206 10.4167 7.73894 10.4631 7.78543L10.4632 7.78553L10.4857 7.80803L10.4857 7.80804L10.4877 7.80997C10.6118 7.93135 10.7694 8.01277 10.9402 8.04374C11.093 8.07146 11.2502 8.05762 11.3954 8.00417C11.4222 8.00198 11.4486 7.99544 11.4735 7.98478C11.6292 7.91804 11.762 7.80722 11.8556 7.66596C11.9491 7.5247 11.9993 7.35917 12 7.18975H12V7.18875V7.125C12 6.99239 12.0527 6.86522 12.1464 6.77145C12.2402 6.67768 12.3674 6.625 12.5 6.625C12.6326 6.625 12.7598 6.67768 12.8536 6.77145C12.9473 6.86522 13 6.99239 13 7.125L13 7.15875L13 7.15975C13.0007 7.32917 13.0509 7.4947 13.1444 7.63596C13.2377 7.77685 13.3701 7.88746 13.5253 7.95425C13.6838 8.02391 13.8595 8.04463 14.0298 8.01374C14.2006 7.98277 14.3582 7.90135 14.4823 7.77997L14.4823 7.77998L14.4843 7.77802L14.5068 7.75552L14.5069 7.75543C14.5533 7.70894 14.6085 7.67206 14.6692 7.6469C14.7299 7.62174 14.7949 7.60878 14.8606 7.60878C14.9263 7.60878 14.9914 7.62174 15.0521 7.6469C15.1128 7.67206 15.1679 7.70894 15.2144 7.75543L15.2146 7.75562C15.2611 7.80206 15.2979 7.85721 15.3231 7.9179C15.3483 7.9786 15.3612 8.04367 15.3612 8.10938C15.3612 8.17508 15.3483 8.24015 15.3231 8.30085C15.2979 8.36154 15.2611 8.41669 15.2146 8.46312L15.2145 8.46322L15.192 8.48572L15.192 8.48571L15.19 8.48768C15.0687 8.61177 14.9872 8.76938 14.9563 8.94018C14.9285 9.09303 14.9424 9.25019 14.9958 9.39535C14.998 9.42223 15.0046 9.44862 15.0152 9.47348C15.082 9.62921 15.1928 9.76202 15.334 9.85557C15.4753 9.94912 15.6408 9.99932 15.8103 10H15.8112H15.875C16.0076 10 16.1348 10.0527 16.2286 10.1464C16.3223 10.2402 16.375 10.3674 16.375 10.5C16.375 10.6326 16.3223 10.7598 16.2286 10.8536C16.1348 10.9473 16.0076 11 15.875 11L15.8412 11L15.8403 11C15.6708 11.0007 15.5053 11.0509 15.364 11.1444C15.2231 11.2377 15.1125 11.3701 15.0457 11.5253C14.9761 11.6838 14.9554 11.8595 14.9863 12.0298C15.0172 12.2006 15.0987 12.3582 15.22 12.4823Z" fill="white" stroke="#999999" stroke-width="0.5" stroke-linecap="round" stroke-linejoin="round"/>
<path d="M12.5 11.625C13.1213 11.625 13.625 11.1213 13.625 10.5C13.625 9.87868 13.1213 9.375 12.5 9.375C11.8787 9.375 11.375 9.87868 11.375 10.5C11.375 11.1213 11.8787 11.625 12.5 11.625Z" stroke="#999999" stroke-width="0.5" stroke-linecap="round" stroke-linejoin="round"/>
<circle cx="2.5" cy="7.5" r="0.4" stroke="#999999" stroke-width="0.2"/>
<circle cx="2.5" cy="9.5" r="0.4" stroke="#999999" stroke-width="0.2"/>
<circle cx="2.5" cy="5.5" r="0.4" stroke="#999999" stroke-width="0.2"/>
<circle cx="2.5" cy="3.5" r="0.4" stroke="#999999" stroke-width="0.2"/>
<line x1="4" y1="3.45001" x2="9" y2="3.45001" stroke="#999999" stroke-width="0.5"/>
<line x1="4" y1="5.45001" x2="9" y2="5.45001" stroke="#999999" stroke-width="0.5"/>
<line x1="4" y1="7.45001" x2="9" y2="7.45001" stroke="#999999" stroke-width="0.5"/>
<line x1="4" y1="9.45001" x2="9" y2="9.45001" stroke="#999999" stroke-width="0.5"/>
</svg>
