<svg width="18" height="18" viewBox="0 0 18 18" fill="none" xmlns="http://www.w3.org/2000/svg">
<path d="M14.25 2.25H3.75C2.92157 2.25 2.25 2.92157 2.25 3.75V14.25C2.25 15.0784 2.92157 15.75 3.75 15.75H14.25C15.0784 15.75 15.75 15.0784 15.75 14.25V3.75C15.75 2.92157 15.0784 2.25 14.25 2.25Z" fill="#777777" stroke="#777777" stroke-width="1.5" stroke-linecap="round" stroke-linejoin="round"/>
<path d="M13.7861 6.2381C13.4902 5.93248 12.997 5.91902 12.6845 6.2096L7.71005 10.8313L5.33736 8.44474C5.03685 8.14269 4.54414 8.13607 4.23556 8.4305C3.92725 8.72464 3.92075 9.20785 4.221 9.5099L7.13005 12.4359C7.2825 12.5893 7.48511 12.6667 7.68824 12.6667C7.88097 12.6667 8.0737 12.5969 8.22461 12.4573L13.757 7.31727C14.0692 7.02718 14.0824 6.54397 13.7861 6.2381Z" fill="white"/>
</svg>
