<svg width="22" height="22" viewBox="0 0 22 22" fill="none" xmlns="http://www.w3.org/2000/svg">
<path d="M14.6667 3.66666H16.5C16.9863 3.66666 17.4526 3.85981 17.7964 4.20363C18.1402 4.54744 18.3334 5.01376 18.3334 5.49999V18.3333C18.3334 18.8196 18.1402 19.2859 17.7964 19.6297C17.4526 19.9735 16.9863 20.1667 16.5 20.1667H5.50002C5.01379 20.1667 4.54747 19.9735 4.20366 19.6297C3.85984 19.2859 3.66669 18.8196 3.66669 18.3333V5.49999C3.66669 5.01376 3.85984 4.54744 4.20366 4.20363C4.54747 3.85981 5.01379 3.66666 5.50002 3.66666H7.33335" stroke="#4A4A4A" stroke-width="1.5" stroke-linecap="round" stroke-linejoin="round"/>
<path d="M13.75 1.83333H8.25004C7.74378 1.83333 7.33337 2.24373 7.33337 2.74999V4.58333C7.33337 5.08959 7.74378 5.5 8.25004 5.5H13.75C14.2563 5.5 14.6667 5.08959 14.6667 4.58333V2.74999C14.6667 2.24373 14.2563 1.83333 13.75 1.83333Z" stroke="#4A4A4A" stroke-width="1.5" stroke-linecap="round" stroke-linejoin="round"/>
</svg>
