<svg width="24" height="24" viewBox="0 0 24 24" fill="none" xmlns="http://www.w3.org/2000/svg">
<path d="M22.6912 1.30889C21.8471 0.464906 20.7249 9.375e-05 19.5313 9.375e-05L4.46878 0C2.00466 0.000140625 0 2.00484 4.6875e-05 4.46878L0 19.5313C4.6875e-05 21.9953 2.00475 24 4.46883 24H19.5313C21.9953 24 24 21.9953 24 19.5313V4.46883C24 3.27516 23.5352 2.15292 22.6912 1.30889ZM22.5938 19.5313C22.5938 21.2199 21.2199 22.5938 19.5313 22.5938H4.46883C2.78016 22.5938 1.4063 21.2199 1.40625 19.5313L1.4063 4.46873C1.40625 2.78016 2.78011 1.40634 4.46883 1.40625L19.5313 1.40634C20.3493 1.40634 21.1184 1.72486 21.6968 2.30325C22.2752 2.88169 22.5938 3.65077 22.5938 4.46883V19.5313Z" fill="#2A578D"/>
<path d="M16.225 10.1949C15.9504 9.92037 15.5052 9.92032 15.2306 10.1949L12.7032 12.7224L12.7032 5.22186C12.7032 4.83354 12.3884 4.51873 12 4.51873C11.6117 4.51873 11.2969 4.83354 11.2969 5.22186L11.297 12.7226L8.76937 10.195C8.49482 9.92042 8.0496 9.92042 7.77501 10.195C7.50041 10.4696 7.50041 10.9148 7.77501 11.1894L11.5029 14.9172C11.6347 15.0491 11.8136 15.1231 12 15.1231C12.1865 15.1231 12.3654 15.049 12.4972 14.9172L16.225 11.1893C16.4996 10.9147 16.4996 10.4695 16.225 10.1949Z" fill="#2A578D"/>
<path d="M18.7781 18.075H5.22186C4.83355 18.075 4.51874 18.3898 4.51874 18.7781C4.51874 19.1664 4.83355 19.4812 5.22186 19.4812H18.7781C19.1664 19.4812 19.4812 19.1664 19.4812 18.7781C19.4812 18.3898 19.1664 18.075 18.7781 18.075Z" fill="#2A578D"/>
</svg>
