<svg width="16" height="16" viewBox="0 0 16 16" fill="none" xmlns="http://www.w3.org/2000/svg">
<g clip-path="url(#clip0_81_2637)">
<path d="M0.050512 1.46778L1.11758 3.33504C1.15358 3.39814 1.21382 3.44379 1.28427 3.46146L2.2798 3.71034L5.69423 7.12477L6.0715 6.74761L2.60363 3.27984C2.5695 3.24561 2.5267 3.22136 2.47985 3.20961L1.52328 2.96962L0.614774 1.37889L1.39368 0.599984L2.98507 1.50937L3.22517 2.46593C3.2368 2.5129 3.26117 2.55581 3.29529 2.58993L6.76317 6.05781L7.14033 5.68054L3.7259 2.2661L3.47702 1.27113C3.45935 1.20057 3.4137 1.14021 3.3506 1.10411L1.48322 0.0371479C1.37908 -0.0221094 1.24806 -0.00455168 1.16312 0.0800547L0.0961622 1.14713C0.0103487 1.23151 -0.00830643 1.36276 0.050512 1.46778V1.46778Z" fill="white"/>
<path d="M11.1411 5.25741L5.27257 11.1261L4.89529 10.7488L10.764 4.88025L11.1411 5.25741Z" fill="white"/>
<path d="M4.24553 11.3337C4.19724 11.2534 4.11055 11.2043 4.01684 11.2043H2.41634C2.32273 11.2043 2.23593 11.2534 2.18776 11.3337L1.38746 12.6675C1.33665 12.752 1.33665 12.8576 1.38746 12.9422L2.18776 14.276C2.23593 14.3562 2.32273 14.4054 2.41634 14.4054H4.01684C4.11055 14.4054 4.19724 14.3562 4.24553 14.276L5.04572 12.9422C5.09653 12.8576 5.09653 12.752 5.04572 12.6675L4.24553 11.3337ZM3.86595 13.8718H2.56734L1.92714 12.8049L2.56734 11.7378H3.86595L4.50615 12.8049L3.86595 13.8718Z" fill="white"/>
<path d="M12.8196 6.40267C14.5814 6.4086 16.0146 4.9851 16.0205 3.2233C16.0214 2.9551 15.9885 2.68801 15.9225 2.42804C15.887 2.28506 15.7422 2.19804 15.5992 2.23359C15.5523 2.24533 15.5095 2.26958 15.4752 2.30371L13.8147 3.96314L12.4972 3.52408L12.0578 2.20693L13.7184 0.546077C13.8225 0.441828 13.8224 0.272945 13.7182 0.168805C13.6838 0.134458 13.6406 0.110097 13.5933 0.0984649C11.8847 -0.334223 10.149 0.700036 9.7163 2.40851C9.65057 2.66771 9.61776 2.93414 9.61864 3.20157C9.6193 3.4116 9.64091 3.62098 9.68349 3.82662L3.84148 9.66851C3.63583 9.62604 3.42646 9.60443 3.21653 9.60366C1.44858 9.60366 0.0154266 11.0368 0.0154266 12.8048C0.0154266 14.5726 1.44858 16.0057 3.21653 16.0057C4.98438 16.0057 6.41753 14.5726 6.41753 12.8048C6.41687 12.5947 6.39514 12.3853 6.35268 12.1797L7.75126 10.7811L8.36293 11.3928C8.46718 11.4969 8.63595 11.4969 8.7402 11.3928L8.87353 11.2594C8.99051 11.1431 9.17958 11.1431 9.29656 11.2594C9.41343 11.3759 9.41365 11.5651 9.29711 11.6819C9.297 11.6821 9.29678 11.6823 9.29656 11.6825L9.16323 11.8158C9.05909 11.92 9.05909 12.0888 9.16323 12.193L12.3454 15.3751C13.1823 16.2197 14.5455 16.2259 15.3901 15.3889C16.2346 14.552 16.2408 13.1887 15.4038 12.3442C15.3993 12.3396 15.3947 12.335 15.3901 12.3304L12.208 9.14837C12.1038 9.04423 11.9349 9.04423 11.8308 9.14837L11.6975 9.28169C11.5804 9.39801 11.3914 9.39801 11.2743 9.28169C11.1576 9.16515 11.1572 8.97597 11.2738 8.85921C11.274 8.85899 11.2742 8.85888 11.2743 8.85866L11.4078 8.72522C11.5119 8.62109 11.5119 8.4522 11.4078 8.34806L10.7961 7.7364L12.1947 6.33782C12.4003 6.38028 12.6097 6.40201 12.8196 6.40267V6.40267ZM13.8677 15.4723C13.6739 15.472 13.4818 15.437 13.3004 15.3688L15.3837 13.2854C15.6981 14.1217 15.2751 15.0544 14.4388 15.3688C14.2563 15.4374 14.0628 15.4725 13.8677 15.4723ZM10.8457 8.53933C10.5503 8.89169 10.5966 9.41689 10.949 9.71219C11.2586 9.97171 11.71 9.97149 12.0193 9.71142L15.0129 12.7076C15.0454 12.7402 15.0758 12.7746 15.1052 12.8095L12.8245 15.0902C12.7895 15.0609 12.7551 15.0305 12.7225 14.9979L9.72662 12.0018C10.022 11.6495 9.97572 11.1243 9.62336 10.829C9.31368 10.5693 8.86223 10.5697 8.55288 10.8296L8.12612 10.4029L10.4188 8.11356L10.8457 8.53933ZM11.9229 5.85641L5.87148 11.9066C5.80509 11.9729 5.77843 12.0691 5.80103 12.1601C6.167 13.5973 5.29855 15.0591 3.86123 15.4249C2.42402 15.7909 0.962228 14.9224 0.596259 13.4851C0.230399 12.0479 1.09885 10.5861 2.53617 10.2202C2.97094 10.1095 3.42646 10.1095 3.86123 10.2202C3.9522 10.2424 4.04822 10.2158 4.11472 10.1498L10.1647 4.09954C10.231 4.03326 10.2576 3.93702 10.2348 3.84616C9.87136 2.42574 10.7282 0.979642 12.1486 0.616088C12.417 0.547503 12.6946 0.521167 12.9712 0.538395L11.564 1.94608C11.4926 2.01741 11.4676 2.12309 11.4995 2.21889L12.0329 3.81949C12.0596 3.89905 12.1222 3.9616 12.2018 3.98805L13.8024 4.52158C13.8981 4.55351 14.0038 4.5286 14.0752 4.45728L15.4824 3.05013C15.4856 3.10105 15.4872 3.15142 15.4872 3.20157C15.4947 4.66731 14.3126 5.86156 12.8468 5.86913C12.6202 5.87023 12.3944 5.84236 12.1749 5.78617C12.084 5.76346 11.9877 5.79002 11.9214 5.8563H11.9229V5.85641Z" fill="white"/>
<path d="M13.8087 13.4164L13.4314 13.7937L10.7639 11.1262L11.1411 10.7489L13.8087 13.4164Z" fill="white"/>
</g>
<defs>
<clipPath id="clip0_81_2637">
<rect width="16" height="16" fill="white"/>
</clipPath>
</defs>
</svg>
