<svg width="16" height="16" viewBox="0 0 16 16" fill="none" xmlns="http://www.w3.org/2000/svg">
<g clip-path="url(#clip0_81_2531)">
<path d="M0.0504968 1.46778L1.11757 3.33504C1.15356 3.39814 1.21381 3.44379 1.28426 3.46146L2.27978 3.71034L5.69422 7.12477L6.07149 6.74761L2.60361 3.27984C2.56949 3.24561 2.52669 3.22136 2.47983 3.20961L1.52326 2.96962L0.614759 1.37889L1.39366 0.599984L2.98506 1.50937L3.22516 2.46593C3.23679 2.5129 3.26115 2.55581 3.29528 2.58993L6.76315 6.05781L7.14032 5.68054L3.72588 2.2661L3.477 1.27113C3.45933 1.20057 3.41368 1.14021 3.35059 1.10411L1.48321 0.0371479C1.37907 -0.0221094 1.24804 -0.00455168 1.16311 0.0800547L0.0961469 1.14713C0.0103334 1.23151 -0.00832169 1.36276 0.0504968 1.46778Z" fill="#999999"/>
<path d="M11.1411 5.25741L5.27257 11.1261L4.89529 10.7488L10.764 4.88025L11.1411 5.25741Z" fill="#999999"/>
<path d="M4.24551 11.3337C4.19723 11.2534 4.11054 11.2043 4.01682 11.2043H2.41632C2.32272 11.2043 2.23592 11.2534 2.18774 11.3337L1.38744 12.6675C1.33663 12.752 1.33663 12.8576 1.38744 12.9422L2.18774 14.276C2.23592 14.3562 2.32272 14.4054 2.41632 14.4054H4.01682C4.11054 14.4054 4.19723 14.3562 4.24551 14.276L5.0457 12.9422C5.09651 12.8576 5.09651 12.752 5.0457 12.6675L4.24551 11.3337ZM3.86593 13.8718H2.56732L1.92712 12.8049L2.56732 11.7378H3.86593L4.50613 12.8049L3.86593 13.8718Z" fill="#999999"/>
<path d="M12.8197 6.40267C14.5815 6.4086 16.0146 4.9851 16.0205 3.2233C16.0214 2.9551 15.9885 2.68801 15.9225 2.42804C15.887 2.28506 15.7422 2.19804 15.5993 2.23359C15.5523 2.24533 15.5095 2.26958 15.4753 2.30371L13.8147 3.96314L12.4972 3.52408L12.0579 2.20693L13.7184 0.546077C13.8225 0.441828 13.8224 0.272945 13.7182 0.168805C13.6838 0.134458 13.6406 0.110097 13.5933 0.0984649C11.8847 -0.334223 10.149 0.700036 9.71632 2.40851C9.65059 2.66771 9.61777 2.93414 9.61865 3.20157C9.61931 3.4116 9.64093 3.62098 9.68351 3.82662L3.8415 9.66851C3.63585 9.62604 3.42647 9.60443 3.21655 9.60366C1.44859 9.60366 0.0154419 11.0368 0.0154419 12.8048C0.0154419 14.5726 1.44859 16.0057 3.21655 16.0057C4.98439 16.0057 6.41755 14.5726 6.41755 12.8048C6.41689 12.5947 6.39516 12.3853 6.35269 12.1797L7.75128 10.7811L8.36294 11.3928C8.46719 11.4969 8.63597 11.4969 8.74022 11.3928L8.87355 11.2594C8.99052 11.1431 9.1796 11.1431 9.29658 11.2594C9.41345 11.3759 9.41367 11.5651 9.29713 11.6819C9.29702 11.6821 9.2968 11.6823 9.29658 11.6825L9.16325 11.8158C9.05911 11.92 9.05911 12.0888 9.16325 12.193L12.3454 15.3751C13.1823 16.2197 14.5455 16.2259 15.3901 15.3889C16.2346 14.552 16.2408 13.1887 15.4038 12.3442C15.3993 12.3396 15.3947 12.335 15.3901 12.3304L12.208 9.14837C12.1038 9.04423 11.935 9.04423 11.8308 9.14837L11.6975 9.28169C11.5804 9.39801 11.3914 9.39801 11.2743 9.28169C11.1576 9.16515 11.1573 8.97597 11.2738 8.85921C11.274 8.85899 11.2742 8.85888 11.2743 8.85866L11.4078 8.72522C11.5119 8.62109 11.5119 8.4522 11.4078 8.34806L10.7961 7.7364L12.1947 6.33782C12.4003 6.38028 12.6097 6.40201 12.8197 6.40267ZM13.8677 15.4723C13.6739 15.472 13.4818 15.437 13.3004 15.3688L15.3837 13.2854C15.6981 14.1217 15.2751 15.0544 14.4388 15.3688C14.2563 15.4374 14.0628 15.4725 13.8677 15.4723ZM10.8457 8.53933C10.5503 8.89169 10.5966 9.41689 10.949 9.71219C11.2587 9.97171 11.71 9.97149 12.0193 9.71142L15.0129 12.7076C15.0454 12.7402 15.0758 12.7746 15.1052 12.8095L12.8245 15.0902C12.7895 15.0609 12.7551 15.0305 12.7225 14.9979L9.72663 12.0018C10.022 11.6495 9.97573 11.1243 9.62337 10.829C9.3137 10.5693 8.86224 10.5697 8.5529 10.8296L8.12613 10.4029L10.4188 8.11356L10.8457 8.53933ZM11.9229 5.85641L5.8715 11.9066C5.80511 11.9729 5.77844 12.0691 5.80105 12.1601C6.16702 13.5973 5.29857 15.0591 3.86125 15.4249C2.42404 15.7909 0.962243 14.9224 0.596274 13.4851C0.230415 12.0479 1.09886 10.5861 2.53619 10.2202C2.97096 10.1095 3.42647 10.1095 3.86125 10.2202C3.95222 10.2424 4.04824 10.2158 4.11474 10.1498L10.1647 4.09954C10.231 4.03326 10.2576 3.93702 10.2348 3.84616C9.87138 2.42574 10.7282 0.979642 12.1486 0.616088C12.417 0.547503 12.6947 0.521167 12.9712 0.538395L11.5641 1.94608C11.4926 2.01741 11.4676 2.12309 11.4995 2.21889L12.033 3.81949C12.0596 3.89905 12.1222 3.9616 12.2018 3.98805L13.8024 4.52158C13.8981 4.55351 14.0038 4.5286 14.0752 4.45728L15.4824 3.05013C15.4856 3.10105 15.4872 3.15142 15.4872 3.20157C15.4947 4.66731 14.3126 5.86156 12.8469 5.86913C12.6203 5.87023 12.3944 5.84236 12.175 5.78617C12.084 5.76346 11.9877 5.79002 11.9215 5.8563H11.9229V5.85641Z" fill="#999999"/>
<path d="M13.8087 13.4164L13.4314 13.7937L10.7639 11.1262L11.1411 10.7489L13.8087 13.4164Z" fill="#999999"/>
</g>
<defs>
<clipPath id="clip0_81_2531">
<rect width="16" height="16" fill="white"/>
</clipPath>
</defs>
</svg>
