<svg width="16" height="16" viewBox="0 0 16 16" fill="none" xmlns="http://www.w3.org/2000/svg">
<g clip-path="url(#clip0_81_2633)">
<path d="M15.7652 14.7642H14.6859V10.3695C14.6859 10.2399 14.5807 10.1347 14.451 10.1347C14.3213 10.1347 14.2162 10.2399 14.2162 10.3695V14.7642H12.3873V7.03437C12.3873 6.99123 12.4224 6.95609 12.4655 6.95609H14.1379C14.1811 6.95609 14.2162 6.99123 14.2162 7.03437V9.43021C14.2162 9.5599 14.3213 9.66504 14.451 9.66504C14.5807 9.66504 14.6859 9.5599 14.6859 9.43021V7.03437C14.6859 6.73225 14.4401 6.48643 14.1379 6.48643H12.4655C12.1634 6.48643 11.9176 6.73225 11.9176 7.03437V14.7642H11.1514V8.7434C11.1514 8.44128 10.9056 8.19545 10.6034 8.19545H8.93104C8.62888 8.19545 8.38309 8.44128 8.38309 8.7434V14.7642H7.61688V10.4524C7.61688 10.1503 7.37108 9.90448 7.06893 9.90448H5.39654C5.09442 9.90448 4.8486 10.1503 4.8486 10.4524V12.5059C4.8486 12.6356 4.95374 12.7407 5.08343 12.7407C5.21312 12.7407 5.31826 12.6356 5.31826 12.5059V10.4524C5.31826 10.4092 5.35339 10.3741 5.39654 10.3741H7.06893C7.11211 10.3741 7.14721 10.4092 7.14721 10.4524V14.7642H5.31826V13.4452C5.31826 13.3155 5.21312 13.2104 5.08343 13.2104C4.95374 13.2104 4.8486 13.3155 4.8486 13.4452V14.7642H4.08238V12.1614C4.08238 11.8593 3.83659 11.6135 3.53443 11.6135H1.86207C1.55995 11.6135 1.31413 11.8593 1.31413 12.1614V14.7642H0.234834C0.105143 14.7642 0 14.8693 0 14.999C0 15.1287 0.105143 15.2338 0.234834 15.2338H15.7652C15.8949 15.2338 16 15.1287 16 14.999C16 14.8693 15.8949 14.7642 15.7652 14.7642ZM8.85276 8.7434C8.85276 8.70025 8.88789 8.66512 8.93104 8.66512H10.6034C10.6466 8.66512 10.6817 8.70025 10.6817 8.7434V14.7642H8.85276V8.7434ZM1.7838 12.1614C1.7838 12.1183 1.81893 12.0832 1.86207 12.0832H3.53447C3.57764 12.0832 3.61274 12.1183 3.61274 12.1614V14.7642H1.7838V12.1614Z" fill="white"/>
<path d="M2.50772 8.81C2.52059 8.81 2.53358 8.80953 2.54661 8.80865C4.27849 8.68836 5.90708 8.3104 7.38719 7.68527C9.38021 6.8435 11.0301 5.57465 12.2946 3.91199L13.086 4.46232C13.242 4.57858 13.4796 4.43884 13.4538 4.24605L13.1257 0.978171C13.115 0.838617 12.9675 0.735948 12.8329 0.774367L9.65233 1.60273C9.46246 1.64557 9.41412 1.91704 9.57744 2.0228L10.3762 2.57814C10.2172 2.82781 9.86713 3.32288 9.25665 3.92843C9.16457 4.0198 9.16397 4.16846 9.25531 4.26052C9.34664 4.35261 9.49534 4.3532 9.58739 4.26187C10.5285 3.32832 10.8838 2.64574 10.8985 2.61715C10.9521 2.51251 10.9201 2.38432 10.8236 2.31719L10.2647 1.92859L12.6858 1.29801L12.9356 3.78559L12.3762 3.39668C12.2714 3.32385 12.1278 3.34796 12.0525 3.45091C10.8221 5.13451 9.1909 6.4136 7.20446 7.25258C5.42044 8.00605 3.66911 8.25983 2.51411 8.34008C2.44663 8.35736 2.42619 8.23347 2.49338 8.22626C5.06638 7.43225 7.21517 6.316 8.88007 4.90857C8.97914 4.82484 8.99154 4.67668 8.90781 4.57764C8.82412 4.4786 8.67589 4.46614 8.57689 4.5499C6.96054 5.91628 4.86717 7.00219 2.35492 7.77748C2.09404 7.85798 1.94096 8.11101 1.99093 8.37909C2.03843 8.63403 2.2525 8.81 2.50772 8.81Z" fill="white"/>
</g>
<defs>
<clipPath id="clip0_81_2633">
<rect width="16" height="16" fill="white"/>
</clipPath>
</defs>
</svg>
