<svg width="22" height="22" viewBox="0 0 22 22" fill="none" xmlns="http://www.w3.org/2000/svg">
<path d="M20.2116 19.9378L20.2116 19.9378L17.9682 17.6944L17.7015 17.961L19.9449 20.2045L19.9525 20.2121L19.9525 20.2121L20.2116 19.9378ZM20.2116 19.9378L20.2197 19.9458M20.2116 19.9378L20.2197 19.9458M20.2197 19.9458C20.2942 20.0186 20.2955 20.1381 20.2227 20.2125C20.1499 20.2871 20.0304 20.2884 19.956 20.2156L19.9551 20.2147M20.2197 19.9458L19.9551 20.2147M19.9551 20.2147C19.9551 20.2147 19.955 20.2146 19.9548 20.2144L19.9551 20.2147Z" fill="#2A578D" stroke="#2A578D" stroke-width="2"/>
<circle cx="9" cy="9" r="8.5" stroke="#2A578D"/>
<path d="M9.19722 0.875H9.19708C4.60092 0.875 0.875 4.60092 0.875 9.19708C0.875 13.7932 4.60092 17.5192 9.19708 17.5192C13.7932 17.5192 17.5192 13.7932 17.5192 9.19708V9.19695C17.5142 4.60294 13.7912 0.880003 9.19722 0.875ZM13.4916 5.55905H13.4908C12.5595 5.55905 11.8044 6.31406 11.8044 7.2454L11.8044 7.24601C11.8058 7.51348 11.8714 7.7762 11.9953 8.01215L9.5738 10.4337C9.09424 10.1796 8.51925 10.1796 8.03969 10.4337L6.39884 8.79282C6.52273 8.55687 6.58841 8.29416 6.58972 8.02669L6.58972 8.02623C6.59088 7.0966 5.83824 6.34205 4.9086 6.34089C4.17251 6.33999 3.5254 6.81667 3.30345 7.51073H2.10594C2.88782 4.23493 5.81589 1.91069 9.19714 1.90567C11.5325 1.90757 13.7231 3.029 15.0903 4.91713L14.2565 5.751C14.021 5.62695 13.7588 5.56088 13.4916 5.55905ZM1.90567 9.2071L1.90567 9.20709C1.90551 8.98483 1.91554 8.76267 1.93569 8.54136H3.30352C3.52527 9.23326 4.169 9.7096 4.9029 9.71237L4.90399 9.71237C5.17146 9.71105 5.43418 9.64538 5.67013 9.52149L7.31128 11.1626C7.18739 11.3986 7.12171 11.6613 7.1204 11.9288V11.9294C7.1204 12.8607 7.87541 13.6157 8.80675 13.6157C9.73808 13.6157 10.4931 12.8607 10.4931 11.9294L10.4931 11.9288C10.4918 11.6613 10.4261 11.3986 10.3022 11.1626L12.724 8.74081C12.96 8.86471 13.2227 8.93038 13.4902 8.9317H13.4908C14.4221 8.9317 15.1771 8.17669 15.1771 7.24535L15.1771 7.24473C15.1758 6.97727 15.1102 6.71456 14.9863 6.47861L15.6515 5.81364C17.4901 9.30688 16.2087 13.6465 12.7399 15.5726C11.6562 16.1743 10.4368 16.4895 9.19719 16.4884H9.197C5.17286 16.4912 1.90841 13.2312 1.90567 9.2071ZM14.1465 7.2454C14.1465 7.60754 13.8529 7.90107 13.4908 7.90107C13.1287 7.90107 12.8351 7.60754 12.8351 7.2454C12.8351 6.88326 13.1287 6.58972 13.4908 6.58972C13.8529 6.58972 14.1465 6.88326 14.1465 7.2454ZM9.46242 11.9294C9.46242 12.2916 9.16889 12.5851 8.80675 12.5851C8.4446 12.5851 8.15107 12.2916 8.15107 11.9294C8.15107 11.5673 8.4446 11.2738 8.80675 11.2738C9.16889 11.2738 9.46242 11.5673 9.46242 11.9294ZM5.55905 8.02607C5.55905 8.38821 5.26551 8.68175 4.90337 8.68175C4.54123 8.68175 4.2477 8.38821 4.2477 8.02607C4.2477 7.66393 4.54123 7.3704 4.90337 7.3704C5.26551 7.3704 5.55905 7.66393 5.55905 8.02607Z" fill="#2A578D" stroke="#2A578D" stroke-width="0.25"/>
</svg>
