<svg width="16" height="16" viewBox="0 0 16 16" fill="none" xmlns="http://www.w3.org/2000/svg">
<g clip-path="url(#clip0_81_2661)">
<path d="M15.6667 16.0001H0.333333C0.149333 16.0001 0 15.8508 0 15.6668C0 15.4828 0.149333 15.3335 0.333333 15.3335H15.6667C15.8507 15.3335 16 15.4828 16 15.6668C16 15.8508 15.8507 16.0001 15.6667 16.0001Z" fill="white"/>
<path d="M15.0001 16.0001H11.6668C11.4828 16.0001 11.3334 15.8508 11.3334 15.6668V12.0001C11.3334 11.6328 11.6328 11.3335 12.0001 11.3335H14.6668C15.0341 11.3335 15.3334 11.6328 15.3334 12.0001V15.6668C15.3334 15.8508 15.1841 16.0001 15.0001 16.0001ZM12.0001 15.3335H14.6668V12.0001H12.0001V15.3335Z" fill="white"/>
<path d="M9.66667 16.0001H6.33333C6.14933 16.0001 6 15.8508 6 15.6668V8.0001C6 7.63277 6.29933 7.33344 6.66667 7.33344H9.33333C9.70067 7.33344 10 7.63277 10 8.0001V15.6668C10 15.8508 9.85067 16.0001 9.66667 16.0001ZM6.66667 15.3335H9.33333V8.0001H6.66667V15.3335Z" fill="white"/>
<path d="M4.33323 16.0001H0.999898C0.815898 16.0001 0.666565 15.8508 0.666565 15.6668V4.00015C0.666565 3.63281 0.965898 3.33348 1.33323 3.33348H3.9999C4.36723 3.33348 4.66656 3.63281 4.66656 4.00015V15.6668C4.66656 15.8508 4.51723 16.0001 4.33323 16.0001ZM1.33323 15.3335H3.9999V4.00015H1.33323V15.3335Z" fill="white"/>
<path d="M14.3334 7.33342C14.248 7.33342 14.1627 7.30075 14.0974 7.23609L8.09738 1.23608C7.96738 1.10609 7.96738 0.894752 8.09738 0.764752C8.22738 0.634752 8.43871 0.634752 8.56871 0.764752L14.5687 6.76475C14.6987 6.89475 14.6987 7.10609 14.5687 7.23609C14.504 7.30075 14.4187 7.33342 14.3334 7.33342Z" fill="white"/>
<path d="M14.3334 7.33346H11.6668C11.4828 7.33346 11.3334 7.18412 11.3334 7.00012C11.3334 6.81612 11.4828 6.66679 11.6668 6.66679H14.0001V4.33346C14.0001 4.14946 14.1494 4.00012 14.3334 4.00012C14.5174 4.00012 14.6667 4.14946 14.6667 4.33346V7.00012C14.6667 7.18412 14.5174 7.33346 14.3334 7.33346Z" fill="white"/>
</g>
<defs>
<clipPath id="clip0_81_2661">
<rect width="16" height="16" fill="white"/>
</clipPath>
</defs>
</svg>
