<svg width="16" height="16" viewBox="0 0 16 16" fill="none" xmlns="http://www.w3.org/2000/svg">
<g clip-path="url(#clip0_81_2521)">
<path d="M7.99988 3.29796C5.40716 3.29796 3.29785 5.4073 3.29785 7.99999C3.29785 10.5927 5.40716 12.702 7.99988 12.702C10.5926 12.702 12.7019 10.5927 12.7019 7.99999C12.7019 5.40727 10.5926 3.29796 7.99988 3.29796ZM7.99988 11.7645C5.9241 11.7645 4.23535 10.0757 4.23535 7.99999C4.23535 5.92424 5.9241 4.23546 7.99988 4.23546C10.0757 4.23546 11.7644 5.92421 11.7644 7.99999C11.7644 10.0758 10.0757 11.7645 7.99988 11.7645Z" fill="#999999"/>
<path d="M7.68814 7.40039C7.68814 7.2957 7.78408 7.20851 8.08496 7.20851C8.35096 7.20851 8.63439 7.28264 8.93527 7.43526L9.24489 6.68961C8.99633 6.55004 8.68236 6.4672 8.35968 6.43667V5.97008H7.74483V6.44539C7.02968 6.54567 6.67211 6.95995 6.67211 7.4527C6.67211 8.59082 8.35968 8.28123 8.35968 8.66495C8.35968 8.7696 8.25502 8.83066 7.96286 8.83066C7.62708 8.83066 7.24336 8.72166 6.95555 8.55157L6.62415 9.3016C6.8858 9.46294 7.30877 9.58069 7.74483 9.60685V10.0691H8.35968V9.58507C9.03558 9.46732 9.37571 9.05741 9.37571 8.58648C9.37571 7.46142 7.68814 7.76667 7.68814 7.40039V7.40039Z" fill="#999999"/>
<path d="M15.9523 7.13067L15.0198 7.23373C15.1942 8.81123 14.8208 10.4238 13.9684 11.7745C13.1041 13.1438 11.7809 14.1818 10.2424 14.6971C9.50584 14.9438 8.74921 15.062 7.99984 15.0619C5.83668 15.0618 3.73734 14.0764 2.38068 12.3541H3.30956V11.4159H0.801056V14.04H1.73924V13.0518C2.63387 14.1411 3.81949 14.9905 5.16562 15.4916C6.07521 15.8302 7.03474 16 7.99306 16C8.85559 16 9.71721 15.8624 10.5403 15.5867C12.2832 15.0029 13.7824 13.8269 14.7617 12.2753C15.7271 10.7456 16.15 8.91855 15.9523 7.13067V7.13067Z" fill="#999999"/>
<path d="M1.99871 4.28437C2.86286 2.88815 4.19783 1.83147 5.75767 1.30894C7.2767 0.800155 8.87467 0.816311 10.379 1.35581C11.5537 1.77712 12.601 2.50853 13.3999 3.45347L12.5058 3.45315L12.5055 4.39134L15.0418 4.39219V1.88547H14.1036V2.83312C13.2002 1.77019 12.0193 0.947405 10.6957 0.472686C8.99114 -0.138595 7.18055 -0.157064 5.45974 0.419342C3.69264 1.01125 2.1802 2.20853 1.20099 3.79059C0.234518 5.35209 -0.168857 7.20953 0.0651426 9.02075L0.99558 8.90053C0.789111 7.30247 1.14536 5.66309 1.99871 4.28437Z" fill="#999999"/>
</g>
<defs>
<clipPath id="clip0_81_2521">
<rect width="16" height="16" fill="white"/>
</clipPath>
</defs>
</svg>
