<svg width="16" height="16" viewBox="0 0 16 16" fill="none" xmlns="http://www.w3.org/2000/svg">
<path d="M14.5938 1.90643H5.15625C4.38084 1.90643 3.75 2.53728 3.75 3.31268C3.75 4.08809 4.38084 4.71893 5.15625 4.71893H14.5938C15.3692 4.71893 16 4.08809 16 3.31268C16 2.53728 15.3692 1.90643 14.5938 1.90643ZM14.5938 3.78143H5.15625C4.89778 3.78143 4.6875 3.57115 4.6875 3.31268C4.6875 3.05421 4.89778 2.84393 5.15625 2.84393H14.5938C14.8522 2.84393 15.0625 3.05421 15.0625 3.31268C15.0625 3.57115 14.8522 3.78143 14.5938 3.78143Z" fill="white"/>
<path d="M14.5938 6.59393H5.15625C4.38084 6.59393 3.75 7.22478 3.75 8.00018C3.75 8.77559 4.38084 9.40643 5.15625 9.40643H14.5938C15.3692 9.40643 16 8.77559 16 8.00018C16 7.22478 15.3692 6.59393 14.5938 6.59393ZM14.5938 8.46893H5.15625C4.89778 8.46893 4.6875 8.25865 4.6875 8.00018C4.6875 7.74171 4.89778 7.53143 5.15625 7.53143H14.5938C14.8522 7.53143 15.0625 7.74171 15.0625 8.00018C15.0625 8.25865 14.8522 8.46893 14.5938 8.46893Z" fill="white"/>
<path d="M14.5938 11.2814H5.15625C4.38084 11.2814 3.75 11.9123 3.75 12.6877C3.75 13.4631 4.38084 14.0939 5.15625 14.0939H14.5938C15.3692 14.0939 16 13.4631 16 12.6877C16 11.9123 15.3692 11.2814 14.5938 11.2814ZM14.5938 13.1564H5.15625C4.89778 13.1564 4.6875 12.9462 4.6875 12.6877C4.6875 12.4292 4.89778 12.2189 5.15625 12.2189H14.5938C14.8522 12.2189 15.0625 12.4292 15.0625 12.6877C15.0625 12.9462 14.8522 13.1564 14.5938 13.1564Z" fill="white"/>
<path d="M1.40625 1.90643C0.630844 1.90643 0 2.53728 0 3.31268C0 4.08809 0.630844 4.71893 1.40625 4.71893C2.18166 4.71893 2.8125 4.08809 2.8125 3.31268C2.8125 2.53728 2.18166 1.90643 1.40625 1.90643ZM1.40625 3.78143C1.14778 3.78143 0.9375 3.57115 0.9375 3.31268C0.9375 3.05421 1.14778 2.84393 1.40625 2.84393C1.66472 2.84393 1.875 3.05421 1.875 3.31268C1.875 3.57115 1.66472 3.78143 1.40625 3.78143Z" fill="white"/>
<path d="M1.40625 6.59393C0.630844 6.59393 0 7.22478 0 8.00018C0 8.77559 0.630844 9.40643 1.40625 9.40643C2.18166 9.40643 2.8125 8.77559 2.8125 8.00018C2.8125 7.22478 2.18166 6.59393 1.40625 6.59393ZM1.40625 8.46893C1.14778 8.46893 0.9375 8.25865 0.9375 8.00018C0.9375 7.74171 1.14778 7.53143 1.40625 7.53143C1.66472 7.53143 1.875 7.74171 1.875 8.00018C1.875 8.25865 1.66472 8.46893 1.40625 8.46893Z" fill="white"/>
<path d="M1.40625 11.2814C0.630844 11.2814 0 11.9123 0 12.6877C0 13.4631 0.630844 14.0939 1.40625 14.0939C2.18166 14.0939 2.8125 13.4631 2.8125 12.6877C2.8125 11.9123 2.18166 11.2814 1.40625 11.2814ZM1.40625 13.1564C1.14778 13.1564 0.9375 12.9462 0.9375 12.6877C0.9375 12.4292 1.14778 12.2189 1.40625 12.2189C1.66472 12.2189 1.875 12.4292 1.875 12.6877C1.875 12.9462 1.66472 13.1564 1.40625 13.1564Z" fill="white"/>
</svg>
