<svg width="16" height="16" viewBox="0 0 16 16" fill="none" xmlns="http://www.w3.org/2000/svg">
<g clip-path="url(#clip0_81_2537)">
<path d="M9.73174 10.4655C9.81352 10.3652 9.79849 10.2175 9.69818 10.1357C9.22511 9.75011 8.62789 9.5377 8.01649 9.5377C6.54802 9.5377 5.3533 10.7324 5.3533 12.2009C5.3533 13.6694 6.54799 14.8641 8.01649 14.8641C9.48499 14.8641 10.6797 13.6694 10.6797 12.2009C10.6797 11.805 10.5949 11.424 10.4276 11.0684C10.3725 10.9513 10.2329 10.901 10.1157 10.9561C9.99861 11.0112 9.94833 11.1508 10.0034 11.268C10.1411 11.5607 10.211 11.8745 10.211 12.2009C10.211 13.4109 9.22652 14.3953 8.01649 14.3953C6.80646 14.3953 5.82205 13.4109 5.82205 12.2009C5.82205 10.9908 6.80646 10.0064 8.01649 10.0064C8.5203 10.0064 9.01236 10.1814 9.40199 10.499C9.50233 10.5808 9.64996 10.5658 9.73174 10.4655Z" fill="#999999"/>
<path d="M8.01644 8.4968C7.00894 8.4968 6.06675 8.89423 5.36344 9.61592C5.2731 9.70861 5.275 9.85701 5.36772 9.94733C5.46041 10.0377 5.60882 10.0357 5.69913 9.94305C6.31344 9.31267 7.13641 8.96551 8.01641 8.96551C9.80041 8.96551 11.2518 10.4169 11.2518 12.2009C11.2518 13.9849 9.80041 15.4363 8.01641 15.4363C6.23244 15.4363 4.78107 13.9849 4.78107 12.2009C4.78107 11.6994 4.89257 11.2189 5.1125 10.7726C5.16972 10.6565 5.122 10.516 5.00588 10.4588C4.88975 10.4015 4.74925 10.4493 4.69204 10.5654C4.44007 11.0767 4.31232 11.6269 4.31232 12.2009C4.31232 14.2434 5.97397 15.905 8.01641 15.905C10.0588 15.905 11.7205 14.2434 11.7205 12.2009C11.7206 10.1585 10.0589 8.4968 8.01644 8.4968Z" fill="#999999"/>
<path d="M8.01653 13.874C8.146 13.874 8.25091 13.7691 8.25091 13.6397V13.4748C8.53963 13.3818 8.75806 13.1316 8.81307 12.8039C8.87797 12.4175 8.67741 12.0716 8.31403 11.9433C8.19619 11.9002 7.88697 11.8139 7.81009 11.7244C7.7579 11.6657 7.73434 11.5841 7.74853 11.5116C7.76262 11.4397 7.81137 11.3828 7.89341 11.3423C8.06556 11.2576 8.27684 11.4076 8.28306 11.4122C8.38288 11.4939 8.53013 11.4797 8.61231 11.3801C8.69472 11.2803 8.6806 11.1325 8.58075 11.0501C8.52325 11.0027 8.40263 10.9284 8.25088 10.8844V10.7647C8.25088 10.6353 8.14597 10.5303 8.0165 10.5303C7.88703 10.5303 7.78212 10.6353 7.78212 10.7647V10.8832C7.75015 10.8935 7.71812 10.9061 7.68622 10.9218C7.47225 11.0273 7.33103 11.2047 7.28853 11.4214C7.24618 11.6376 7.31003 11.8671 7.45943 12.0355C7.60478 12.1993 7.79778 12.2639 8.02128 12.3387C8.22156 12.4044 8.36575 12.5661 8.35075 12.7262C8.32506 12.8793 8.20478 13.0446 8.00147 13.0459C7.82978 13.0469 7.76672 13.0102 7.57059 12.882C7.46225 12.8112 7.317 12.8416 7.24618 12.95C7.17537 13.0583 7.20581 13.2036 7.31418 13.2744C7.48072 13.3832 7.60881 13.4613 7.78212 13.4954V13.6396C7.78215 13.7691 7.88709 13.874 8.01653 13.874Z" fill="#999999"/>
<path d="M4.59941 4.24528C4.59941 2.97721 3.56775 1.94559 2.29972 1.94559C1.03166 1.94556 0 2.97721 0 4.24528C0 5.51334 1.03166 6.54496 2.29972 6.54496C3.56775 6.54496 4.59941 5.51331 4.59941 4.24528ZM2.29972 6.07621C1.29013 6.07621 0.46875 5.25484 0.46875 4.24528C0.46875 3.23571 1.29013 2.41434 2.29972 2.41434C3.30931 2.41434 4.13066 3.23571 4.13066 4.24528C4.13066 5.25484 3.30928 6.07621 2.29972 6.07621Z" fill="#999999"/>
<path d="M13.8065 1.91497C13.6759 1.90887 13.5676 2.00912 13.5617 2.13844C13.5558 2.26775 13.6559 2.37734 13.7852 2.38322C14.7642 2.42784 15.5312 3.23125 15.5312 4.21225C15.5312 5.22184 14.7098 6.04319 13.7002 6.04319C12.6906 6.04319 11.8693 5.22181 11.8693 4.21225C11.8693 3.53187 12.2432 2.91134 12.8451 2.59275C12.9595 2.53219 13.0032 2.39037 12.9427 2.27597C12.8821 2.16156 12.7403 2.11787 12.6259 2.17844C11.87 2.57844 11.4005 3.35775 11.4005 4.21225C11.4005 5.48031 12.4322 6.51194 13.7002 6.51194C14.9682 6.51194 15.9999 5.48028 15.9999 4.21225C15.9999 2.98009 15.0364 1.97103 13.8065 1.91497Z" fill="#999999"/>
<path d="M8.01652 4.69444C9.28459 4.69444 10.3162 3.66278 10.3162 2.39472C10.3162 1.12666 9.28459 0.0950317 8.01652 0.0950317C6.74849 0.0950317 5.71683 1.12669 5.71683 2.39472C5.71683 3.66278 6.74849 4.69444 8.01652 4.69444ZM8.01652 0.563782C9.02612 0.563782 9.84749 1.38516 9.84749 2.39472C9.84749 3.40431 9.02612 4.22569 8.01652 4.22569C7.00692 4.22569 6.18558 3.40431 6.18558 2.39472C6.18558 1.38516 7.00696 0.563782 8.01652 0.563782Z" fill="#999999"/>
<path d="M9.34332 6.79999L9.34337 6.80003V6.80008L9.34332 6.79999Z" fill="#999999"/>
<path d="M7.72671 8.00107H8.30646C8.52186 8.00107 8.69708 7.82585 8.69708 7.61045V7.32223H9.07889C9.20324 7.32223 9.31543 7.25329 9.37161 7.14238C9.4278 7.03148 9.41702 6.90029 9.34346 6.80001L8.33155 5.42055C8.25824 5.32064 8.14052 5.26102 8.01658 5.26102C7.89267 5.26102 7.77496 5.32067 7.70164 5.42058L6.68967 6.80004C6.61611 6.90029 6.60539 7.03151 6.66158 7.14242C6.7178 7.25332 6.82996 7.32223 6.95427 7.32223H7.33611V7.61045C7.33608 7.82585 7.5113 8.00107 7.72671 8.00107ZM8.96549 7.07729C8.96552 7.07729 8.96552 7.07732 8.96552 7.07732C8.96549 7.07726 8.96546 7.0772 8.96539 7.07717L8.96549 7.07729ZM7.2318 6.85348L8.01655 5.7837L8.8013 6.85348H8.46267C8.33321 6.85348 8.2283 6.95842 8.2283 7.08785V7.53232H7.8048V7.08785C7.8048 6.95842 7.69989 6.85348 7.57042 6.85348H7.2318Z" fill="#999999"/>
<path d="M12.0207 6.51342C11.9192 6.44235 11.7885 6.42373 11.6712 6.46351L10.051 7.01307C9.93323 7.05301 9.8492 7.15432 9.83158 7.27738C9.81398 7.40048 9.86633 7.52126 9.9682 7.5926L10.281 7.8116L10.1157 8.0477C9.99214 8.22413 10.0352 8.46816 10.2116 8.59173L10.6865 8.92426C10.7545 8.97188 10.8326 8.99476 10.91 8.99476C11.0332 8.99476 11.1546 8.93672 11.2305 8.82832L11.3958 8.59219L11.7086 8.81119C11.8104 8.88251 11.9417 8.89041 12.0515 8.83182C12.1611 8.77319 12.2276 8.65957 12.2249 8.53523C12.2249 8.53523 12.2249 8.53523 12.2249 8.53519L12.1872 6.82476C12.1844 6.70089 12.1222 6.58448 12.0207 6.51342ZM11.4727 8.07379C11.3667 7.99954 11.2206 8.02535 11.1463 8.13135L10.8914 8.49544L10.5445 8.25257L10.7994 7.88848C10.8737 7.78245 10.8479 7.63632 10.7419 7.56207L10.4645 7.36782L11.7209 6.94164L11.7501 8.26807L11.4727 8.07379Z" fill="#999999"/>
<path d="M4.63542 8.5922L4.80073 8.82833C4.87664 8.9367 4.99801 8.99474 5.12126 8.99474C5.19864 8.99474 5.27673 8.97186 5.34476 8.92424L5.81967 8.5917C5.99607 8.46814 6.03907 8.22411 5.91554 8.04767L5.75023 7.81158L6.06304 7.59255C6.16489 7.5212 6.21723 7.40045 6.19964 7.27736C6.18204 7.15429 6.09798 7.05298 5.98023 7.01304C5.9802 7.01304 5.9802 7.01304 5.9802 7.01304L4.36004 6.46348C4.2427 6.4237 4.11207 6.44232 4.01054 6.51339C3.90901 6.58445 3.84676 6.70086 3.84401 6.82479L3.80632 8.5352C3.80361 8.65955 3.87004 8.77317 3.9797 8.8318C4.08936 8.89039 4.22073 8.88252 4.32257 8.81117L4.63542 8.5922ZM4.31036 6.94161L5.56682 7.3678L5.28942 7.56205C5.18336 7.6363 5.15761 7.78242 5.23186 7.88845L5.48679 8.25255L5.13989 8.49542L4.88495 8.13133C4.83936 8.0662 4.76667 8.03136 4.69276 8.03136C4.64636 8.03136 4.59948 8.04511 4.55854 8.07377L4.28114 8.26798L4.31036 6.94161Z" fill="#999999"/>
<path d="M2.29968 2.99529C1.61043 2.99529 1.04968 3.55604 1.04968 4.24529C1.04968 4.93454 1.61043 5.49529 2.29968 5.49529C2.98893 5.49529 3.54968 4.93454 3.54968 4.24529C3.54968 3.55604 2.9889 2.99529 2.29968 2.99529ZM2.29968 5.02654C1.8689 5.02654 1.51843 4.67607 1.51843 4.24529C1.51843 3.81451 1.8689 3.46404 2.29968 3.46404C2.73046 3.46404 3.08093 3.81451 3.08093 4.24529C3.08093 4.67607 2.73046 5.02654 2.29968 5.02654Z" fill="#999999"/>
<path d="M6.97458 2.41935C7.10142 2.44551 7.22527 2.36363 7.25127 2.23682C7.32527 1.87567 7.64714 1.61354 8.01655 1.61354C8.44733 1.61354 8.7978 1.96401 8.7978 2.39479C8.7978 2.82557 8.44733 3.17604 8.01655 3.17604C7.83574 3.17604 7.66599 3.1161 7.52574 3.00267C7.42511 2.92129 7.27755 2.93688 7.19611 3.03754C7.11473 3.1382 7.13036 3.28576 7.23098 3.36713C7.45239 3.54617 7.73136 3.64479 8.01655 3.64479C8.7058 3.64479 9.26655 3.08404 9.26655 2.39479C9.26655 1.70554 8.7058 1.14479 8.01655 1.14479C7.42555 1.14479 6.91055 1.56448 6.79201 2.14273C6.76604 2.26951 6.84776 2.39335 6.97458 2.41935Z" fill="#999999"/>
<path d="M12.4503 4.21222C12.4503 4.90147 13.0111 5.46221 13.7003 5.46221C14.3896 5.46221 14.9503 4.90147 14.9503 4.21222C14.9503 3.52297 14.3896 2.96222 13.7003 2.96222C13.0111 2.96222 12.4503 3.52297 12.4503 4.21222ZM13.7003 3.43097C14.1311 3.43097 14.4816 3.78144 14.4816 4.21222C14.4816 4.643 14.1311 4.99346 13.7003 4.99346C13.2695 4.99346 12.9191 4.643 12.9191 4.21222C12.9191 3.78144 13.2695 3.43097 13.7003 3.43097Z" fill="#999999"/>
</g>
<defs>
<clipPath id="clip0_81_2537">
<rect width="16" height="16" fill="white"/>
</clipPath>
</defs>
</svg>
