<?xml version="1.0"?>
<svg width="24" height="24" fill="none" xmlns="http://www.w3.org/2000/svg">
<path d="m5.88,5.39c-0.13,0.45 -0.13,1.15 0,1.59l0.15,3.1l-2.71,-0.05c-0.19,0 -0.25,1.48 -0.25,2.11c0,0.62 0.05,1.99 0.25,1.99l2.66,-0.12l-0.1,3.27c-0.14,0.45 -0.14,1.15 0,1.58c0.13,0.45 0.35,0.45 0.49,0l1.84,-5.93c0.06,-0.21 0.1,-0.49 0.1,-0.8c0,-0.3 -0.03,-0.59 -0.1,-0.8l-1.85,-5.94c-0.14,-0.43 -0.36,-0.43 -0.5,0z" />
<path d="m12.17,5.49c-0.13,0.44 -0.13,1.14 0,1.59l0.15,3.08l-2.71,-0.05c-0.19,0 -0.25,1.48 -0.25,2.1c0,0.62 0.05,1.98 0.25,1.98l2.66,-0.12l-0.1,3.26c-0.14,0.44 -0.14,1.14 0,1.57c0.13,0.44 0.35,0.44 0.49,0l1.84,-5.9c0.06,-0.21 0.1,-0.49 0.1,-0.79c0,-0.3 -0.03,-0.59 -0.1,-0.79l-1.85,-5.92c-0.14,-0.43 -0.36,-0.43 -0.5,0z" />
<path d="m18.52,5.49c-0.13,0.44 -0.13,1.13 0,1.57l0.15,3.05l-2.71,-0.05c-0.19,0 -0.25,1.46 -0.25,2.08c0,0.61 0.05,1.96 0.25,1.96l2.66,-0.12l-0.1,3.23c-0.14,0.44 -0.14,1.13 0,1.55c0.13,0.44 0.35,0.44 0.49,0l1.84,-5.84c0.06,-0.2 0.1,-0.49 0.1,-0.79c0,-0.3 -0.03,-0.58 -0.1,-0.78l-1.85,-5.85c-0.14,-0.42 -0.36,-0.42 -0.5,0z" />
</svg>