<svg width="22" height="22" viewBox="0 0 22 22" fill="none" xmlns="http://www.w3.org/2000/svg">
<path d="M17.2344 13.8938C16.0747 13.8938 15.0419 14.4465 14.3851 15.3019L8.97777 12.5385C9.06139 12.2349 9.10625 11.9156 9.10625 11.5859C9.10625 11.1327 9.02161 10.6988 8.86759 10.299L14.5427 6.88927C15.2009 7.63487 16.1635 8.10625 17.2344 8.10625C19.2143 8.10625 20.825 6.49556 20.825 4.51562C20.825 2.53569 19.2143 0.925 17.2344 0.925C15.2544 0.925 13.6438 2.53569 13.6438 4.51562C13.6438 4.95084 13.7218 5.36824 13.8643 5.7547L8.17319 9.17405C7.51603 8.4506 6.56806 7.99531 5.51562 7.99531C3.53569 7.99531 1.925 9.606 1.925 11.5859C1.925 13.5659 3.53569 15.1766 5.51562 15.1766C6.69439 15.1766 7.74204 14.6056 8.39692 13.7261L13.7866 16.4804C13.6936 16.7992 13.6438 17.1361 13.6438 17.4844C13.6438 19.4643 15.2544 21.075 17.2344 21.075C19.2143 21.075 20.825 19.4643 20.825 17.4844C20.825 15.5044 19.2143 13.8938 17.2344 13.8938ZM17.2344 2.24688C18.4853 2.24688 19.5031 3.2647 19.5031 4.51562C19.5031 5.76655 18.4853 6.78438 17.2344 6.78438C15.9835 6.78438 14.9656 5.76655 14.9656 4.51562C14.9656 3.2647 15.9835 2.24688 17.2344 2.24688ZM5.51562 13.8547C4.2647 13.8547 3.24688 12.8369 3.24688 11.5859C3.24688 10.335 4.2647 9.31719 5.51562 9.31719C6.76655 9.31719 7.78438 10.335 7.78438 11.5859C7.78438 12.8369 6.76655 13.8547 5.51562 13.8547ZM17.2344 19.7531C15.9835 19.7531 14.9656 18.7353 14.9656 17.4844C14.9656 16.2335 15.9835 15.2156 17.2344 15.2156C18.4853 15.2156 19.5031 16.2335 19.5031 17.4844C19.5031 18.7353 18.4853 19.7531 17.2344 19.7531Z" fill="#4A4A4A" stroke="black" stroke-width="0.15"/>
</svg>
