<svg width="23" height="22" viewBox="0 0 23 22" fill="none" xmlns="http://www.w3.org/2000/svg">
<path d="M3.03546 5.5H4.86879H19.5355" stroke="#4A4A4A" stroke-width="1.5" stroke-linecap="round" stroke-linejoin="round"/>
<path d="M7.6188 5.49999V3.66666C7.6188 3.18043 7.81195 2.71412 8.15577 2.3703C8.49959 2.02648 8.9659 1.83333 9.45213 1.83333H13.1188C13.605 1.83333 14.0713 2.02648 14.4152 2.3703C14.759 2.71412 14.9521 3.18043 14.9521 3.66666V5.49999M17.7021 5.49999V18.3333C17.7021 18.8196 17.509 19.2859 17.1652 19.6297C16.8213 19.9735 16.355 20.1667 15.8688 20.1667H6.70213C6.2159 20.1667 5.74958 19.9735 5.40577 19.6297C5.06195 19.2859 4.8688 18.8196 4.8688 18.3333V5.49999H17.7021Z" stroke="#4A4A4A" stroke-width="1.5" stroke-linecap="round" stroke-linejoin="round"/>
</svg>
