<svg width="32" height="32" viewBox="0 0 32 32" fill="none" xmlns="http://www.w3.org/2000/svg">
<path d="M26.0251 8.93614C25.6829 6.90283 24.6761 5.04718 23.1363 3.639C21.4255 2.07289 19.2013 1.21087 16.8851 1.21087C15.0952 1.21087 13.3514 1.72413 11.8577 2.69144C10.614 3.49423 9.58092 4.57998 8.8505 5.85656C8.53465 5.79734 8.20564 5.76444 7.87662 5.76444C5.07999 5.76444 2.80321 8.04122 2.80321 10.8378C2.80321 11.1998 2.84269 11.5485 2.90849 11.8907C1.09891 13.2068 0 15.3256 0 17.5827C0 19.4054 0.677771 21.1755 1.91487 22.5771C3.18487 24.0116 4.86284 24.8605 6.65268 24.9592C6.67242 24.9592 6.68559 24.9592 6.70533 24.9592H12.3644C12.8579 24.9592 13.2527 24.5644 13.2527 24.0708C13.2527 23.5773 12.8579 23.1825 12.3644 23.1825H6.73165C4.0403 23.018 1.77668 20.4582 1.77668 17.5761C1.77668 15.7139 2.77689 13.9767 4.38906 13.0357C4.76414 12.8185 4.92206 12.3645 4.7773 11.9565C4.64569 11.6012 4.57989 11.2261 4.57989 10.8247C4.57989 9.00852 6.06046 7.52796 7.87662 7.52796C8.26486 7.52796 8.64651 7.59376 9.00185 7.72537C9.43615 7.88329 9.91651 7.68588 10.1139 7.27133C11.3444 4.65895 14.0029 2.97439 16.8916 2.97439C20.774 2.97439 23.9786 5.88288 24.3471 9.73894C24.3866 10.1403 24.6893 10.4628 25.0841 10.5286C28.0123 11.0287 30.2233 13.7332 30.2233 16.8193C30.2233 20.0898 27.6504 22.9324 24.4787 23.1759H19.629C19.1355 23.1759 18.7407 23.5707 18.7407 24.0643C18.7407 24.5578 19.1355 24.9526 19.629 24.9526H24.5116C24.5314 24.9526 24.5511 24.9526 24.5774 24.9526C26.5844 24.8078 28.4598 23.8866 29.8548 22.3468C31.2433 20.8202 32 18.8592 32 16.8193C31.9934 13.1278 29.4732 9.84422 26.0251 8.93614Z" fill="#999999"/>
<path d="M21.3332 18.4249C21.682 18.0762 21.682 17.5168 21.3332 17.1681L16.6283 12.4632C16.4638 12.2987 16.2335 12.2 16.0032 12.2C15.7729 12.2 15.5426 12.2921 15.3781 12.4632L10.6731 17.1681C10.3244 17.5168 10.3244 18.0762 10.6731 18.4249C10.8442 18.596 11.0745 18.6881 11.2983 18.6881C11.522 18.6881 11.7523 18.6026 11.9234 18.4249L15.1148 15.2335V29.901C15.1148 30.3945 15.5097 30.7893 16.0032 30.7893C16.4967 30.7893 16.8915 30.3945 16.8915 29.901V15.2335L20.083 18.4249C20.4251 18.7737 20.9845 18.7737 21.3332 18.4249Z" fill="#999999"/>
</svg>
