<svg width="24" height="24" viewBox="0 0 24 24" fill="none" xmlns="http://www.w3.org/2000/svg">
<path d="M12 0C5.36766 0 0 5.36705 0 12C0 18.6323 5.36705 24 12 24C18.6323 24 24 18.633 24 12C24 5.36766 18.633 0 12 0ZM12 22.4C6.26545 22.4 1.59998 17.7346 1.59998 12C1.59998 6.26541 6.26545 1.59998 12 1.59998C17.7345 1.59998 22.4 6.26545 22.4 12C22.4 17.7345 17.7345 22.4 12 22.4Z" fill="#F5452C"/>
<path d="M11.9998 9.83319C11.558 9.83319 11.1998 10.1914 11.1998 10.6332V17.3817C11.1998 17.8235 11.558 18.1818 11.9998 18.1818C12.4417 18.1818 12.7999 17.8236 12.7999 17.3817V10.6332C12.7998 10.1913 12.4416 9.83319 11.9998 9.83319Z" fill="#F5452C"/>
<path d="M12 5.81816C11.1178 5.81816 10.4 6.53591 10.4 7.41815C10.4 8.30039 11.1178 9.01814 12 9.01814C12.8822 9.01814 13.6 8.30039 13.6 7.41815C13.6 6.53591 12.8822 5.81816 12 5.81816Z" fill="#F5452C"/>
</svg>
